<svg id="coaching-portal" xmlns="http://www.w3.org/2000/svg" viewBox="0 0 350 373">
<style type="text/css">
	.coaching-portal-0{fill:#BD338D;}
	.coaching-portal-1{fill:#EB4DB4;}
	.coaching-portal-2{fill:#FFFFFF;}
</style>
<ellipse id="circle-bottom" class="coaching-portal-0" cx="157.2" cy="216.1" rx="157.2" ry="156.5"/>
<ellipse id="circle-top" class="coaching-portal-1" cx="175" cy="156.5" rx="157.2" ry="156.5"/>
<ellipse id="circle-white-center" class="coaching-portal-2" cx="192.8" cy="199.5" rx="157.2" ry="156.5"/>
<g id="icon">
	<path class="coaching-portal-0" d="M154.9,167.9v44.1c0,7,5.6,12.6,12.6,12.6h69.3c6.9,0,12.6-5.7,12.6-12.6v-44.1c0-7-5.6-12.6-12.6-12.6h-69.3
		C160.5,155.3,154.9,161,154.9,167.9z M202.1,167.9c3.3,0,6.5,1.3,8.9,3.7s3.7,5.6,3.7,8.9s-1.3,6.6-3.7,8.9s-5.6,3.7-8.9,3.7
		c-3.3,0-6.5-1.3-8.9-3.7c-2.4-2.4-3.7-5.6-3.7-8.9s1.3-6.6,3.7-8.9C195.6,169.2,198.8,167.9,202.1,167.9z M189.1,199.4h26.1
		c5,0,9,4,9,9c0,2-1.6,3.6-3.6,3.6h-36.9c-2,0-3.6-1.6-3.6-3.6C180.1,203.5,184.1,199.4,189.1,199.4z M145.4,172.6
		c0-2.6-2.1-4.7-4.7-4.7s-4.7,2.1-4.7,4.7v44.1c0,14.8,12,26.8,26.8,26.8h63c2.6,0,4.7-2.1,4.7-4.7c0-2.6-2.1-4.7-4.7-4.7h-63
		c-9.6,0-17.3-7.8-17.3-17.3V172.6z"/>
</g>
</svg>
