<svg id="dashboard-portal" xmlns="http://www.w3.org/2000/svg" viewBox="0 0 350 372.64">
<defs>
<style>
.dashboard-portal1{fill:#fff;}.dashboard-portal2{fill:#7bd8fa;}.dashboard-portal3{fill:#46c3f1;}</style>
</defs>
<ellipse id="circle-bottom" class="dashboard-portal3" cx="157.19" cy="216.13" rx="157.19" ry="156.51"/>
<ellipse id="circle-top" class="dashboard-portal2" cx="175" cy="156.51" rx="157.19" ry="156.51"/>
<ellipse id="circle-white-center" class="dashboard-portal1" cx="192.81" cy="199.49" rx="157.19" ry="156.51"/>
<g id="icon">
<path class="dashboard-portal3" d="m186.35,159.19c0,2.82-.89,5.42-2.39,7.56l6.02,12.88c2.02-.43,4.12-.66,6.26-.66,7.44,0,14.22,2.74,19.43,7.25l16.92-12.4c-.04-.47-.08-.95-.08-1.44,0-7.28,5.91-13.19,13.19-13.19s13.19,5.91,13.19,13.19-5.92,13.19-13.19,13.19c-1.9,0-3.69-.39-5.32-1.11l-16.9,12.41c1.57,3.61,2.43,7.6,2.43,11.79,0,3.21-.52,6.33-1.46,9.23l14.84,8.9c1.9-1.05,4.08-1.65,6.41-1.65,7.27,0,13.19,5.91,13.19,13.19s-5.92,13.19-13.19,13.19-13.19-5.91-13.19-13.19v-.23l-14.86-8.92c-5.4,5.65-13,9.15-21.41,9.15-14.12,0-25.95-9.87-28.93-23.08h-15.7c-2.29,3.94-6.53,6.6-11.42,6.6-7.27,0-13.19-5.92-13.19-13.19s5.91-13.19,13.19-13.19c4.88,0,9.15,2.66,11.42,6.59h15.68c1.55-6.8,5.42-12.69,10.74-16.84l-6.02-12.88c-6.74-.6-12.04-6.24-12.04-13.15,0-7.27,5.91-13.19,13.19-13.19s13.19,5.91,13.19,13.19Zm9.89,59.35c2.62,0,5.14-1.04,6.99-2.9s2.9-4.37,2.9-6.99-1.04-5.14-2.9-6.99-4.37-2.9-6.99-2.9-5.14,1.04-6.99,2.9-2.9,4.37-2.9,6.99,1.04,5.14,2.9,6.99,4.37,2.9,6.99,2.9Z"/>
</g>
</svg>
