<svg id="engagement-portal" xmlns="http://www.w3.org/2000/svg" viewBox="0 0 350 374.31">
  <defs>
    <style>
      .engagement-portal-1{fill:#fff;}
      .engagement-portal-2{fill:#ffea82;}
      .engagement-portal-3{fill:#ffd407;}
    </style>
  </defs>
  <ellipse id="circle-bottom" class="engagement-portal-3" cx="192.11" cy="217.1" rx="157.89" ry="157.21"/>
  <ellipse id="circle-top" class="engagement-portal-2" cx="175" cy="157.21" rx="157.89" ry="157.21"/>
  <ellipse id="circle-white-center" class="engagement-portal-1" cx="157.89" cy="199.79" rx="157.89" ry="157.21"/>
  <g id="icon">
    <path class="engagement-portal-3" d="m176.28,185.1c0,18.28-17.74,33.1-39.64,33.1-6.9,0-13.4-1.47-19.04-4.06l-20.6,4.06,7.17-14.12c-4.52-5.38-7.17-11.92-7.17-18.98,0-18.28,17.74-33.1,39.64-33.1s39.64,14.82,39.64,33.1Zm6.1,0c0-.98-.04-1.96-.11-2.92,20.53,1.24,36.71,15.55,36.71,33.01,0,7.05-2.65,13.6-7.17,18.98l7.17,14.12-20.6-4.06c-5.64,2.6-12.14,4.06-19.04,4.06-18.22,0-33.58-10.27-38.21-24.26,22.38-1.9,41.26-17.81,41.26-38.93Zm-50.83-18.56c-4.92,0-8.9,3.93-8.9,8.78v1.03h7.62v-1.03c0-.7.57-1.26,1.28-1.26h9.03c1.33,0,2.4,1.07,2.4,2.37,0,.85-.46,1.64-1.2,2.05l-7.05,4.01-1.91,1.09v9.31h7.62v-4.96l5.13-2.9c3.11-1.77,5.03-5.04,5.03-8.58,0-5.47-4.5-9.89-10.02-9.89h-9.03v-.02Zm8.9,32.61h-7.62v7.52h7.62v-7.52Zm64.44,14.2l2.71-2.67-5.39-5.32-2.69,2.65-12.56,12.39-4.94-4.87-2.69-2.65-5.39,5.32,2.69,2.65,7.62,7.52,2.71,2.67,2.69-2.65,15.25-15.05Z"/>
  </g>
</svg>
