<svg id="expectations-portal" xmlns="http://www.w3.org/2000/svg" viewBox="0 0 480 513.3">
<defs>
<style>
.expectations-portal-1{fill:#fff;}.expectations-portal-2{fill:#ffea82;}.expectations-portal-3{fill:#ffd407;}</style>
</defs>
<ellipse class="expectations-portal-3" cx="263.5" cy="297.7" rx="216.5" ry="215.6"/>
<ellipse class="expectations-portal-2" cx="240" cy="215.6" rx="216.5" ry="215.6"/>
<ellipse class="expectations-portal-1" cx="216.5" cy="273.4" rx="216.5" ry="215.6"/>
<path class="expectations-portal-3" d="m154.6,232.3c4.1,0,8.1-1.6,11-4.6,2.9-2.9,4.6-6.9,4.6-11.1s-1.6-8.1-4.6-11.1-6.9-4.6-11-4.6-8.1,1.6-11,4.6c-2.9,2.9-4.6,6.9-4.6,11.1s1.6,8.1,4.6,11.1c2.9,2.9,6.9,4.6,11,4.6Zm-5.2,10.4c-20.1,0-36.4,16.3-36.4,36.5,0,14.6,8.5,27.1,20.8,33v13.9c0,5.8,4.6,10.4,10.4,10.4h20.8c5.8,0,10.4-4.7,10.4-10.4v-10.4c0-4.3-3.5-7.8-7.8-7.8s-7.8,3.5-7.8,7.8v5.2h-10.4v-62.5h10.4c4.1,0,7.9,1.2,11.1,3.2,2.6-4.6,5.9-8.8,9.8-12.3-5.9-4.2-13.1-6.6-20.9-6.6h-10.4Zm-15.6,22.7v27.6c-3.2-3.7-5.2-8.5-5.2-13.8s2-10.1,5.2-13.8Zm140.4-7h10.4v62.5h-10.4v-5.2c0-4.3-3.5-7.8-7.8-7.8s-7.8,3.5-7.8,7.8v10.4c0,5.8,4.6,10.4,10.4,10.4h20.8c5.8,0,10.4-4.7,10.4-10.4v-13.9c12.3-5.9,20.8-18.4,20.8-33,0-20.2-16.3-36.5-36.4-36.5h-10.4c-7.8,0-15,2.4-20.9,6.6,3.9,3.5,7.2,7.6,9.8,12.3,3.2-2.1,7-3.2,11.1-3.2Zm31.2,20.8c0,5.3-1.9,10.1-5.2,13.8v-27.6c3.3,3.7,5.2,8.5,5.2,13.8Zm-10.4-62.6c0-4.1-1.6-8.1-4.6-11.1s-6.9-4.6-11-4.6-8.1,1.6-11,4.6c-2.9,2.9-4.6,6.9-4.6,11.1s1.6,8.1,4.6,11.1,6.9,4.6,11,4.6,8.1-1.6,11-4.6c3-2.9,4.6-6.9,4.6-11.1Zm-78,20.9c2.4,0,4.8-.5,7-1.4s4.2-2.3,5.9-4,3-3.7,3.9-5.9,1.4-4.6,1.4-7-.5-4.8-1.4-7-2.3-4.2-3.9-5.9c-1.7-1.7-3.7-3-5.9-4-2.2-.9-4.6-1.4-7-1.4s-4.8.5-7,1.4-4.2,2.3-5.9,4-3,3.7-3.9,5.9-1.4,4.6-1.4,7,.5,4.8,1.4,7,2.3,4.2,3.9,5.9c1.7,1.7,3.7,3,5.9,4,2.2.9,4.6,1.4,7,1.4Zm-5.2,10.4c-20.1,0-36.4,16.3-36.4,36.5,0,14.6,8.5,27.1,20.8,33v19.2c0,5.8,4.6,10.4,10.4,10.4h20.8c5.8,0,10.4-4.7,10.4-10.4v-19.2c12.3-5.9,20.8-18.4,20.8-33,0-20.2-16.3-36.5-36.4-36.5h-10.4Zm0,73v-57.3h10.4v67.7h-10.4v-10.4Zm-15.6-22.7c-3.2-3.7-5.2-8.5-5.2-13.8s1.9-10.1,5.2-13.8v27.6h0Zm41.6,0v-27.6c3.2,3.7,5.2,8.5,5.2,13.8s-1.9,10.2-5.2,13.8Z"/>
</svg>
