<svg id="focus-portal" xmlns="http://www.w3.org/2000/svg" viewBox="0 0 259.44 275">
<defs>
<style>
.focus-portal-1{fill:#fff;}.focus-portal-2{fill:#ffea82;}.focus-portal-3{fill:#ffd407;}</style>
</defs>
<ellipse id="circle-bottom" class="focus-portal-3" cx="138.54" cy="154.62" rx="120.9" ry="120.38"/>
<ellipse id="circle-top" class="focus-portal-2" cx="125.44" cy="120.39" rx="120.9" ry="120.39"/>
<ellipse id="circle-white-center" class="focus-portal-1" cx="120.9" cy="143.62" rx="120.9" ry="120.38"/>
<g id="icon">
<path class="focus-portal-3" d="m113.53,111.41c0-1.96.82-3.85,2.28-5.24,1.46-1.39,3.44-2.17,5.5-2.17s4.04.78,5.5,2.17c1.46,1.39,2.28,3.27,2.28,5.24s-.82,3.85-2.28,5.24c-1.46,1.39-3.44,2.17-5.5,2.17s-4.04-.78-5.5-2.17c-1.46-1.39-2.28-3.27-2.28-5.24Zm6.48,46.91v19.75c0,2.73-2.32,4.94-5.19,4.94s-5.19-2.21-5.19-4.94v-34.42l-4.64,7.33c-1.47,2.33-4.67,3.09-7.12,1.68-2.45-1.4-3.24-4.44-1.77-6.77l9.45-14.97c2.82-4.46,7.88-7.19,13.34-7.19h4.82c5.46,0,10.52,2.73,13.34,7.19l9.45,14.97c1.48,2.33.68,5.37-1.77,6.77-2.45,1.4-5.64.65-7.12-1.68l-4.65-7.33v34.42c0,2.73-2.32,4.94-5.19,4.94s-5.19-2.21-5.19-4.94v-19.75h-2.59Zm-39.07-53.23c1.52-1.44,3.99-1.44,5.51,0l12.97,12.34c1.52,1.45,1.52,3.8,0,5.23-1.52,1.43-3.99,1.45-5.5,0l-12.99-12.33c-1.51-1.45-1.51-3.79,0-5.25Zm75.22,0c1.52-1.45,3.99-1.45,5.49,0,1.51,1.45,1.52,3.8,0,5.23l-12.97,12.34c-1.52,1.45-3.99,1.45-5.5,0-1.51-1.45-1.52-3.8,0-5.23l12.97-12.34Zm-75.22,76.84c-1.52-1.45-1.52-3.8,0-5.23l12.97-12.34c1.52-1.45,3.99-1.45,5.5,0,1.51,1.45,1.52,3.8,0,5.23l-12.95,12.34c-1.52,1.45-3.99,1.45-5.5,0h-.02Zm75.22,0l-12.97-12.34c-1.52-1.45-1.52-3.79,0-5.23,1.52-1.43,3.99-1.45,5.5,0l12.97,12.34c1.52,1.45,1.52,3.8,0,5.23s-3.99,1.45-5.49,0Z"/>
</g>
</svg>
