<svg width="305" id="four-icon" xmlns="http://www.w3.org/2000/svg" viewBox="0 0 305 65">
  <g class="smallSpinner">
    <circle class="four-icon-5" cx="32.5" cy="32.5" r="32.5"/>
    <path class="four-icon-2" d="m20.1,25.8c0-1.8.72-3.53,1.99-4.81,1.28-1.28,3-1.99,4.81-1.99s3.53.72,4.81,1.99c1.28,1.28,1.99,3,1.99,4.81s-.72,3.53-1.99,4.81c-1.28,1.28-3,1.99-4.81,1.99s-3.53-.72-4.81-1.99c-1.28-1.28-1.99-3-1.99-4.81Zm15.3,9.35l3.4,11.05H15l3.4-11.05h17Zm6.38,1.7v-4.67h-4.68v-2.55h4.68v-4.67h2.55v4.67h4.67v2.55h-4.67v4.67h-2.55Z"/>
  </g>
  <g class="smallSpinner">
    <circle class="four-icon-6" cx="112.5" cy="32.5" r="32.5"/>
    <path class="four-icon-2" d="m95,30.05l12.75-11.05,12.75,11.05v.85h-10.2v-1.7h-5.1v5.1h4.25v6.8h-11.05v-8.5h-3.4v-2.55Zm28.9,5.1h-10.2v7.65h10.2v-7.65Zm-12.75,0v-2.55h15.3v10.2h2.55v1.7l-1.7,1.7h-17l-1.7-1.7v-1.7h2.55v-7.65Z"/>
  </g>
  <g class="smallSpinner">
    <circle class="four-icon-3" cx="192.5" cy="32.5" r="32.5"/>
    <path class="four-icon-2" d="m176,19h32v26h-13l-9,6v-6h-10v-26Zm9,10.7c0,1.01.41,1.97,1.14,2.67l5.18,4.98.69.66.69-.67,5.18-4.98c.72-.7,1.14-1.66,1.14-2.67,0-2.04-1.66-3.7-3.7-3.7h-.15c-.99,0-1.95.39-2.67,1.08l-.48.46-.48-.46c-.72-.69-1.67-1.08-2.67-1.08h-.15c-2.04,0-3.7,1.66-3.7,3.7h0Z"/>
  </g>
  <g class="smallSpinner">
    <circle class="four-icon-4" cx="272.5" cy="32.5" r="32.5"/>
    <path class="four-icon-2" d="m256.7,19h-1.7v27.2h34v-27.2h-32.3Zm1.7,23.8v-20.4h27.2v20.4h-27.2Zm8.49-14.45c0-.33-.07-.67-.19-.98-.13-.31-.32-.59-.55-.83-.24-.24-.52-.42-.83-.55-.31-.13-.64-.19-.98-.19s-.67.07-.97.19c-.31.13-.59.32-.83.55-.24.24-.42.52-.55.83-.13.31-.19.64-.19.98s.07.67.19.98c.13.31.32.59.55.83.24.24.52.42.83.55.31.13.64.19.97.19s.67-.07.98-.19c.31-.13.59-.32.83-.55.24-.24.42-.52.55-.83.13-.31.19-.64.19-.98Zm-5.51,4.25l-1.27,4.25h5.01l1.03-3.09.39-1.16h-5.15Zm17.52,4.25h5.01l-1.27-4.25h-5.15l.39,1.16,1.03,3.09Zm-.94,2.55l-.85-2.55-.85-2.55h-8.5l-.85,2.55-.85,2.55h11.9Zm4.25-11.05c0-.68-.27-1.32-.75-1.8-.48-.48-1.13-.75-1.8-.75s-1.32.27-1.8.75c-.48.48-.75,1.13-.75,1.8s.27,1.32.75,1.8c.48.48,1.13.75,1.8.75s1.33-.27,1.8-.75c.48-.48.75-1.13.75-1.8Zm-10.2,4.25c.9,0,1.77-.36,2.4-1,.64-.64,1-1.5,1-2.4s-.36-1.77-1-2.4c-.64-.64-1.5-1-2.4-1s-1.77.36-2.4,1c-.64.64-1,1.5-1,2.4s.36,1.77,1,2.4c.64.64,1.5,1,2.4,1Z"/>
  </g>
</svg>
