<svg id="heart-talk-icon" xmlns="http://www.w3.org/2000/svg" viewBox="0 0 180 180">
  <circle class="heart-talk-icon-2" cx="90" cy="90" r="90"/>
  <polygon class="heart-talk-icon-1" points="45 124.31 72.81 124.31 72.81 141 97.84 124.31 134 124.31 134 52 45 52 45 124.31"/>
  <path class="heart-talk-icon-2" d="m70.05,81.74c0-5.68,4.61-10.29,10.29-10.29h.42c2.76,0,5.42,1.08,7.42,2.99l1.34,1.29,1.34-1.29c2-1.91,4.66-2.99,7.42-2.99h.42c5.68,0,10.29,4.61,10.29,10.29,0,2.8-1.15,5.48-3.16,7.42l-14.39,13.84-1.93,1.86-1.91-1.84-14.39-13.84c-2.02-1.95-3.16-4.62-3.16-7.42l.02-.02Z"/>
</svg>
