<svg id="hero-circle" xmlns="http://www.w3.org/2000/svg" viewBox="0 0 478.4 500.35">
<defs>
<style>
.hero-circle-style-1{fill:#e7ebf2;}.hero-circle-style-2{fill:#eb4db4;}.hero-circle-style-3{fill:#fff;}.hero-circle-style-4{fill:#cdd3df;}.hero-circle-style-5{fill:#46c3f1;}.hero-circle-style-6{fill:#bd338d;fill-rule:evenodd;}</style>
</defs>
<g class="circleSpinner">
<circle id="circle-left" class="hero-circle-style-4" cx="206.28" cy="272.12" r="206.28"/>
<circle id="circle-bottom" class="hero-circle-style-1" cx="250.17" cy="294.07" r="206.28"/>
<circle id="circle-right" class="hero-circle-style-4" cx="272.12" cy="239.2" r="206.28"/>
<circle id="circle-top" class="hero-circle-style-1" cx="239.2" cy="206.28" r="206.28"/>
</g>
<circle id="circle-center" class="hero-circle-style-3" cx="239.2" cy="250.17" r="206.28"/>
<g id="hero-icon" class="iconSpinner">
<g id="icon-purple">
<circle class="hero-circle-style-2" cx="202.31" cy="187.31" r="84.31"/>
<path class="hero-circle-style-3" d="m165.61,160.24h11.88c1.79,0,3.24-1.39,3.24-3.12s-1.44-3.12-3.24-3.12h-14.04c-2.39,0-4.32,1.86-4.32,4.16v13.53c0,1.73,1.44,3.12,3.24,3.12s3.24-1.39,3.24-3.12v-11.45Zm17.25,22.9c.85,0,1.69-.16,2.48-.48.79-.31,1.5-.77,2.1-1.35.6-.58,1.08-1.27,1.4-2.03.32-.76.49-1.57.49-2.39s-.17-1.63-.49-2.39c-.33-.76-.8-1.45-1.4-2.03-.6-.58-1.32-1.04-2.1-1.35-.79-.31-1.63-.48-2.48-.48s-1.69.16-2.48.48c-.79.31-1.5.77-2.1,1.35-.6.58-1.08,1.27-1.4,2.03-.33.76-.49,1.57-.49,2.39s.17,1.63.49,2.39c.32.76.8,1.45,1.4,2.03.6.58,1.32,1.04,2.1,1.35s1.63.48,2.48.48Zm-3.58,4.16c-3.97,0-7.19,3.11-7.19,6.94,0,1.91,1.61,3.47,3.6,3.47h7.57c1.08-4.44,4.43-8.03,8.8-9.58-1.01-.53-2.19-.83-3.41-.83h-9.37Zm49.66,10.41c1.98,0,3.6-1.55,3.6-3.47,0-3.84-3.23-6.94-7.19-6.94h-9.37c-1.24,0-2.4.3-3.42.83,4.37,1.55,7.72,5.14,8.8,9.58h7.57Zm-12.07,0c-1.16-3.16-4.04-5.54-7.54-6.12-.53-.09-1.07-.13-1.62-.13h-10.8c-.55,0-1.09.04-1.62.13-3.51.57-6.38,2.95-7.54,6.12-.36.98-.55,2.03-.55,3.12,0,1.73,1.44,3.12,3.24,3.12h23.75c1.79,0,3.24-1.39,3.24-3.12,0-1.09-.19-2.15-.55-3.12Zm4.87-14.57c.85,0,1.69-.16,2.48-.48s1.5-.77,2.1-1.35c.6-.58,1.08-1.27,1.4-2.03.33-.76.49-1.57.49-2.39s-.17-1.63-.49-2.39c-.32-.76-.8-1.45-1.4-2.03-.6-.58-1.32-1.04-2.1-1.35-.79-.31-1.63-.48-2.48-.48s-1.69.16-2.48.48c-.79.31-1.5.77-2.1,1.35-.6.58-1.08,1.27-1.4,2.03-.32.76-.49,1.57-.49,2.39s.17,1.63.49,2.39c.33.76.8,1.45,1.4,2.03.6.58,1.32,1.04,2.1,1.35.79.31,1.63.48,2.48.48Zm-10.8-4.16c0-2.21-.91-4.33-2.53-5.89-1.62-1.56-3.82-2.44-6.11-2.44s-4.49.88-6.11,2.44c-1.62,1.56-2.53,3.68-2.53,5.89s.91,4.33,2.53,5.89c1.62,1.56,3.82,2.44,6.11,2.44s4.49-.88,6.11-2.44c1.62-1.56,2.53-3.68,2.53-5.89Zm16.19-18.74h11.88v11.45c0,1.73,1.44,3.12,3.24,3.12s3.24-1.39,3.24-3.12v-13.53c0-2.3-1.93-4.16-4.32-4.16h-14.03c-1.79,0-3.24,1.39-3.24,3.12s1.44,3.12,3.24,3.12Zm-61.54,54.13v-11.45c0-1.73-1.44-3.12-3.24-3.12s-3.24,1.39-3.24,3.12v13.53c0,2.3,1.93,4.16,4.32,4.16h14.04c1.79,0,3.24-1.39,3.24-3.12s-1.44-3.12-3.24-3.12h-11.88Zm61.54,0c-1.79,0-3.24,1.39-3.24,3.12s1.44,3.12,3.24,3.12h14.03c2.39,0,4.32-1.86,4.32-4.16v-13.53c0-1.73-1.44-3.12-3.24-3.12s-3.24,1.39-3.24,3.12v11.45h-11.88Z"/>
</g>
<g id="icon-blue">
<circle class="hero-circle-style-5" cx="276.34" cy="313.16" r="84.31"/>
<path class="hero-circle-style-3" d="m267.87,289.51h16.12v8.02h-16.12v-8.02Zm-2.01-8.02c-3.34,0-6.05,2.7-6.05,6.02v12.03c0,3.32,2.71,6.01,6.05,6.01h6.05v4.01h-32.24c-2.23,0-4.03,1.79-4.03,4.01s1.8,4.01,4.03,4.01h12.09v4.01h-6.04c-3.34,0-6.05,2.69-6.05,6.02v12.03c0,3.32,2.71,6.01,6.05,6.01h20.15c3.34,0,6.05-2.69,6.05-6.01v-12.03c0-3.32-2.71-6.02-6.05-6.02h-6.05v-4.01h32.24v4.01h-6.05c-3.34,0-6.05,2.69-6.05,6.02v12.03c0,3.32,2.71,6.01,6.05,6.01h20.15c3.34,0,6.05-2.69,6.05-6.01v-12.03c0-3.32-2.71-6.02-6.05-6.02h-6.04v-4.01h12.09c2.23,0,4.03-1.79,4.03-4.01s-1.8-4.01-4.03-4.01h-32.24v-4.01h6.05c3.34,0,6.05-2.69,6.05-6.01v-12.03c0-3.32-2.71-6.02-6.05-6.02h-20.15Zm-18.14,56.14v-8.02h16.12v8.02h-16.12Zm40.31-8.02h16.12v8.02h-16.12v-8.02Z"/>
</g>
<path id="icon-overlap" class="hero-circle-style-6" d="m202.79,271.26c14.29.02,28.79-3.6,42.06-11.26,13.27-7.66,23.66-18.4,30.78-30.79-14.29-.02-28.79,3.6-42.06,11.26-13.27,7.66-23.66,18.4-30.78,30.79Z"/>
</g>
</svg>
