<svg id="left-brain-portal" xmlns="http://www.w3.org/2000/svg" viewBox="0 0 259.16 275">
<defs>
<style>
.left-brain-1{fill:#fff;}.left-brain-2{fill:#ffea82;}.left-brain-3{fill:#ffd407;}</style>
</defs>
<ellipse id="circle-bottom" class="left-brain-3" cx="120.9" cy="154.62" rx="120.9" ry="120.38"/>
<ellipse id="circle-top" class="left-brain-2" cx="132.93" cy="120.39" rx="120.9" ry="120.39"/>
<ellipse id="circle-white-center" class="left-brain-1" cx="138.25" cy="142.99" rx="120.9" ry="120.39"/>
<g id="icon">
<path class="left-brain-3" d="m135.38,110.19c0-5.07-4.12-9.19-9.19-9.19-4.74,0-8.65,3.59-9.14,8.19-4.54,1.15-7.92,5.28-7.92,10.19,0,.98.13,1.95.39,2.86-4.72,1.03-8.27,5.23-8.27,10.27,0,2.46.84,4.73,2.26,6.51-4.45,2.1-7.51,6.63-7.51,11.86,0,5.61,3.51,10.4,8.47,12.27-.38,1.08-.59,2.26-.59,3.48,0,5.79,4.71,10.5,10.5,10.5.92,0,1.82-.12,2.67-.35.48,4.63,4.4,8.22,9.14,8.22,5.07,0,9.19-4.12,9.19-9.19v-30.19h-7.88c-1.44,0-2.62,1.18-2.62,2.62v5.69c3.05,1.08,5.25,4,5.25,7.43,0,4.35-3.53,7.88-7.88,7.88s-7.88-3.53-7.88-7.88c0-3.43,2.2-6.35,5.25-7.43v-5.69c0-4.35,3.53-7.88,7.88-7.88h7.88v-13.12h-5.69c-1.08,3.05-4,5.25-7.43,5.25-4.35,0-7.88-3.53-7.88-7.88s3.53-7.88,7.88-7.88c3.43,0,6.35,2.2,7.43,5.25h5.69v-11.81Zm5.25,17.06v31.5h5.69c1.08-3.05,4-5.25,7.43-5.25,4.35,0,7.88,3.53,7.88,7.88s-3.53,7.88-7.88,7.88c-3.43,0-6.35-2.2-7.43-5.25h-5.69v11.81c0,5.07,4.12,9.19,9.19,9.19,4.74,0,8.65-3.59,9.14-8.22.85.23,1.75.35,2.67.35,5.79,0,10.5-4.71,10.5-10.5,0-1.21-.21-2.4-.59-3.48,4.96-1.87,8.47-6.66,8.47-12.27,0-5.23-3.07-9.76-7.51-11.86,1.43-1.79,2.26-4.05,2.26-6.51,0-5.04-3.54-9.24-8.27-10.27.26-.9.39-1.87.39-2.86,0-4.9-3.38-9.04-7.92-10.19-.51-4.59-4.4-8.19-9.14-8.19-5.07,0-9.19,4.12-9.19,9.19v11.81h7.88c4.35,0,7.88,3.53,7.88,7.88v.44c3.05,1.08,5.25,4,5.25,7.43,0,4.35-3.53,7.88-7.88,7.88s-7.88-3.53-7.88-7.88c0-3.43,2.2-6.35,5.25-7.43v-.44c0-1.44-1.18-2.62-2.62-2.62h-7.88Zm-21-2.62c0,.7.28,1.36.77,1.86.49.49,1.16.77,1.86.77s1.36-.28,1.86-.77c.49-.49.77-1.16.77-1.86s-.28-1.36-.77-1.86c-.49-.49-1.16-.77-1.86-.77s-1.36.28-1.86.77c-.49.49-.77,1.16-.77,1.86Zm34.12,10.5c-.7,0-1.36.28-1.86.77s-.77,1.16-.77,1.86.28,1.36.77,1.86,1.16.77,1.86.77,1.36-.28,1.86-.77.77-1.16.77-1.86-.28-1.36-.77-1.86-1.16-.77-1.86-.77Zm-34.12,26.25c0,.7.28,1.36.77,1.86.49.49,1.16.77,1.86.77s1.36-.28,1.86-.77c.49-.49.77-1.16.77-1.86s-.28-1.36-.77-1.86c-.49-.49-1.16-.77-1.86-.77s-1.36.28-1.86.77c-.49.49-.77,1.16-.77,1.86Zm31.5,0c0,.7.28,1.36.77,1.86s1.16.77,1.86.77,1.36-.28,1.86-.77.77-1.16.77-1.86-.28-1.36-.77-1.86-1.16-.77-1.86-.77-1.36.28-1.86.77-.77,1.16-.77,1.86Z"/>
</g>
</svg>
