<svg xmlns="http://www.w3.org/2000/svg" xmlns:xlink="http://www.w3.org/1999/xlink" viewBox="0 0 180 52">
<defs>
<style>
.cls-1{mask:url(#mask);}.cls-2{fill:#fff;}.cls-3,.cls-4{fill:#38576b;}.cls-4,.cls-5,.cls-6,.cls-7,.cls-8,.cls-9,.cls-10,.cls-11,.cls-12,.cls-13{fill-rule:evenodd;}.cls-5{fill:#46c3f1;}.cls-6{fill:#8698a8;}.cls-7{fill:#dbf266;}.cls-8{fill:#bd338d;}.cls-9{fill:#7bd8fa;}.cls-10{fill:#b9d42f;}.cls-11{fill:#ffea82;}.cls-12{fill:#eb4db4;}.cls-13{fill:#ffd407;}.cls-14{mask:url(#mask-3);}.cls-15{mask:url(#mask-2);}.cls-16{mask:url(#mask-1);}</style>
<mask id="mask" x="21.03" y="22.58" width="28.69" height="28.16" maskUnits="userSpaceOnUse">
<g id="mask0_805_2024">
<path class="cls-2" d="m49.62,35.05c.79,5.46-2.9,10.54-8.23,11.34-5.33.8-10.29-2.97-11.08-8.43-.79-5.46,2.9-10.54,8.23-11.34,5.33-.8,10.29,2.97,11.08,8.43Z"/>
</g>
</mask>
<mask id="mask-1" x="30.25" y="6.9" width="22.31" height="39.55" maskUnits="userSpaceOnUse">
<g id="mask1_805_2024">
<path class="cls-2" d="m52.47,26.24c.67,4.61-2.45,8.91-6.96,9.59-4.51.68-8.7-2.51-9.37-7.12-.67-4.61,2.45-8.91,6.96-9.59,4.51-.68,8.7,2.51,9.37,7.12Z"/>
</g>
</mask>
<mask id="mask-2" x="21.58" y="0" width="20.35" height="28.75" maskUnits="userSpaceOnUse">
<g id="mask2_805_2024">
<path class="cls-2" d="m39.5,17.2c.79,5.5-2.92,10.62-8.3,11.43-2.8.42-5.49-.41-7.55-2.07v-1.03h2.47v-6.72h-2.47v-8.04c1.31-1.06,2.9-1.8,4.67-2.07,5.38-.81,10.38,2.99,11.17,8.5h0Z"/>
</g>
</mask>
<mask id="mask-3" x="20.1" y="8.62" width="29.67" height="37.64" maskUnits="userSpaceOnUse">
<g id="mask3_805_2024">
<path class="cls-2" d="m36.8,29.51c.64,4.43-2.35,8.55-6.69,9.21-4.33.65-8.36-2.41-9-6.84-.06-.42-.09-.84-.09-1.25h2.62v-5.96c1.12-1.04,2.54-1.76,4.15-2,4.33-.65,8.36,2.41,9,6.84h0Z"/>
</g>
</mask>
</defs>
<path class="cls-3" d="m58.37,18.89h5.23c2.05,0,4.21.86,4.23,3.24,0,2.43-2.46,2.89-4.38,2.89h-5.08v-6.14h0Zm0-7.08h5.08c1.9,0,3.9.95,3.9,3.19s-1.92,2.77-3.75,2.77h-5.23v-5.96h0Zm5.08-1.01h-6.26v15.36h6.26c2.62,0,5.54-.86,5.54-4.01,0-1.77-1.09-3.33-3.01-3.86,1.53-.48,2.49-1.71,2.49-3.3,0-2.93-2.44-4.2-5.01-4.2h0Zm11.07,15.51c1.72,0,3.6-.7,4.64-2.08l-.76-.61c-.81,1.07-2.46,1.64-3.88,1.64-2.22,0-4.16-1.47-4.38-4.01h9.7c.41-4.23-2.29-6.09-5.32-6.09s-5.47,2.35-5.47,5.59c0,3.44,2.44,5.57,5.47,5.57h0Zm-4.38-6c.24-2.65,2.16-4.16,4.38-4.16,2.59,0,4.34,1.49,4.36,4.16h-8.74Zm18.64,3.62c-.87.88-2.05,1.34-3.21,1.34-2.44,0-4.49-1.6-4.49-4.51s2.05-4.51,4.49-4.51c1.16,0,2.35.42,3.23,1.29l.7-.68c-1.09-1.07-2.51-1.62-3.92-1.62-3.12,0-5.54,2.1-5.54,5.52s2.51,5.52,5.54,5.52c1.42,0,2.83-.53,3.92-1.62l-.72-.72h0Zm6.14,2.39c3.03,0,5.47-2.1,5.47-5.54s-2.44-5.63-5.47-5.63-5.47,2.19-5.47,5.63,2.44,5.54,5.47,5.54Zm0-1.05c-2.44,0-4.43-1.69-4.43-4.49s1.98-4.62,4.43-4.62,4.43,1.82,4.43,4.62-1.98,4.49-4.43,4.49Zm23.02.9v-6.49c0-2.69-1.88-4.56-4.51-4.56-1.66,0-3.33.9-3.99,2.67-.63-1.93-2.35-2.67-3.99-2.67-1.4,0-2.77.59-3.51,2.02l-.02-1.8h-1v10.83h1.07v-6.42c0-2.08,1.39-3.59,3.44-3.59s3.47,1.51,3.47,3.59v6.42h1.07v-6.42c0-2.08,1.42-3.62,3.47-3.62s3.44,1.47,3.44,3.55v6.49h1.07,0Zm5.93.15c1.72,0,3.6-.7,4.64-2.08l-.76-.61c-.81,1.07-2.46,1.64-3.88,1.64-2.22,0-4.16-1.47-4.38-4.01h9.7c.41-4.23-2.29-6.09-5.32-6.09s-5.47,2.35-5.47,5.59c0,3.44,2.44,5.57,5.47,5.57h0Zm-4.38-6c.24-2.65,2.16-4.16,4.38-4.16,2.59,0,4.34,1.49,4.36,4.16h-8.74Z"/>
<path class="cls-3" d="m67.33,27.94v8.31c0,2.49-1.28,4-3.53,4s-3.73-1.39-3.73-4v-8.31h-2.7v8.31c0,4.38,2.95,6.49,6.42,6.49s6.25-2.2,6.25-6.49v-8.31h-2.71Zm13.62,14.49v-5.37c0-3.21-1.92-5.02-4.31-5.02-1.28,0-2.31.52-3.34,1.53l-.17-1.39h-2.25v10.24h2.5v-5.23c0-1.56,1.05-2.86,2.6-2.86s2.45,1.18,2.45,2.74v5.35h2.52Zm10.1,0v-5.47c0-1.35.85-2.53,2.21-2.53s1.92,1.14,1.92,2.49v5.51h2.52v-5.51c0-3.07-1.42-4.85-4.31-4.85-1.32,0-2.5.41-3.4,1.87-.58-1.41-1.79-1.91-3.01-1.91-.97,0-2.14.37-2.68,1.41l-.19-1.24h-2.33v10.24h2.52v-5.47c0-1.35.8-2.57,2.17-2.57s2.08,1.22,2.08,2.57v5.47h2.52Zm10.36-10.26v10.26h-2.52v-10.26h2.52Zm-2.74-2.84c0,1.97,2.97,1.97,2.97,0s-2.97-1.97-2.97,0Zm11.71,3.94c-1.18-1.04-2.37-1.35-3.96-1.35-1.86,0-4.29.83-4.29,3.19s2.29,3.03,4.21,3.17c1.44.08,2.02.37,2.02,1.08,0,.75-.89,1.24-1.84,1.22-1.13-.02-2.79-.62-3.51-1.43l-1.24,1.8c1.49,1.56,3.09,1.82,4.7,1.82,2.91,0,4.37-1.56,4.37-3.36,0-2.72-2.43-3.15-4.35-3.28-1.3-.08-1.9-.46-1.9-1.12s.66-1.02,1.86-1.02c.97,0,1.79.23,2.52.91l1.4-1.66h0Zm1.76-3.67v2.63h-1.9v2.18h1.9v4.42c0,2.55,1.44,3.82,3.65,3.73.76-.02,1.36-.15,2.08-.44l-.7-2.15c-.37.19-.82.31-1.22.31-.78,0-1.32-.48-1.32-1.45v-4.42h2.83v-2.18h-2.81v-2.9l-2.52.27h0Zm13.83,4.02c-.58-1.02-1.88-1.66-3.24-1.66-2.97-.02-5.3,1.82-5.3,5.35s2.23,5.45,5.24,5.43c1.14-.02,2.72-.6,3.3-1.8l.12,1.49h2.37v-10.22h-2.41l-.08,1.41h0Zm-3.01.6c3.96,0,3.96,6.2,0,6.2-1.67,0-3.01-1.16-3.01-3.11s1.34-3.09,3.01-3.09Zm6.22-6.28v14.49h2.52v-4.62l3.98,4.62h3.03v-.19l-4.72-5.22,4.15-4.66v-.15h-3.01l-3.42,4.1v-8.38h-2.52Zm17.32,5.68c-.58-1.02-1.88-1.66-3.24-1.66-2.97-.02-5.3,1.82-5.3,5.35s2.23,5.45,5.24,5.43c1.14-.02,2.72-.6,3.3-1.8l.12,1.49h2.37v-10.22h-2.41l-.08,1.41h0Zm-3.01.6c3.96,0,3.96,6.2,0,6.2-1.67,0-3.01-1.16-3.01-3.11s1.34-3.09,3.01-3.09Zm11.71.1c1.61,0,2.89,1.14,2.89,2.99s-1.28,3.01-2.89,3.01-2.95-1.16-2.95-3.01,1.36-2.99,2.95-2.99Zm-5.63-6.38v14.49h2.35l.17-1.41c.78,1.22,2.04,1.64,3.28,1.64,2.99,0,5.24-1.99,5.24-5.35,0-3.52-2.21-5.35-5.18-5.35-1.07,0-2.74.58-3.34,1.64v-5.66h-2.52Zm11.54,0v14.49h2.49v-14.49h-2.49Zm13.44,10.28c.39-4.21-1.73-6.32-5.13-6.32s-5.4,2.24-5.4,5.35c0,3.28,2.08,5.45,5.59,5.45,1.55,0,3.3-.54,4.37-1.66l-1.61-1.6c-.58.6-1.79.95-2.72.95-1.77,0-2.87-.91-3.03-2.18h7.94Zm-7.9-2.09c.37-1.33,1.48-1.99,2.85-1.99,1.44,0,2.48.66,2.64,1.99h-5.49Z"/>
<path class="cls-4" d="m177.59,35.94c-.27-.02-.47-.09-.69-.18-.1-.04-.19-.11-.27-.16-.04-.03-.18-.14-.21-.17l-.08-.08c-.15-.18-.14-.16-.28-.38-.1-.16-.24-.55-.24-.74-.03.02-.27.27-.31.3l.28-.28s.03-.02.02-.1c-.01-.15,0-.26.01-.4.04-.33.19-.66.37-.89l.18-.21.17-.15c.18-.13.3-.22.54-.3.11-.04.21-.07.33-.09l.12-.02h0c.13,0,.27-.01.4,0,.17.02.29.05.45.1.16.06.2.09.33.16.1.05.33.23.41.33.05.06.06.06.11.13.06.08.1.12.15.21.01.02.03.06.04.08.11.17.21.52.22.76l.31-.31c-.09.1-.2.2-.29.3-.03.03-.01.06-.01.13v.21s0,0,0,0c-.03.22-.09.44-.18.63-.06.12-.15.27-.23.37l-.15.17c-.09.09-.2.18-.32.26-.27.17-.56.28-.89.3h-.13c-.05,0-.1,0-.16,0-.01.02-.27.27-.31.31.04-.05.29-.28.31-.32h0Zm.03-4.21c-.09,0-.17.01-.26.03-.04,0-.09.01-.12.02h-.05s-.04.02-.06.03c-.15.04-.28.1-.42.16-.07.03-.12.07-.18.1-.06.04-.12.07-.17.12-.03.02-.05.04-.08.06-.02.01-.02.02-.04.03-.02.01-.02.02-.04.03l-.24.26c-.05.06-.11.14-.15.21-.44.66-.48,1.54-.13,2.26.06.13.14.25.21.35l.27.3c.22.2.4.33.69.45.12.05.2.07.32.1l.1.02c.28.06.58.05.86,0l.17-.04c.27-.07.54-.21.77-.37.03-.02.05-.04.08-.06.04-.03.13-.11.17-.15l.12-.13s.1-.13.13-.16c.13-.16.27-.46.33-.67.07-.26.11-.49.1-.76,0-.09-.01-.18-.03-.26,0-.02,0-.04-.01-.06v-.03c-.09-.38-.2-.61-.41-.92l-.06-.08c-.05-.07-.08-.1-.14-.16-.13-.13-.23-.21-.39-.32-.12-.07-.24-.14-.38-.2-.14-.06-.21-.07-.35-.11h-.02c-.17-.04-.41-.06-.59-.05h0Z"/>
<path class="cls-4" d="m176.15,33.36h.52v1.53h.22v-1.53h.52v-.19h-1.26v.19h0Zm1.44.99v.11c-.02.14-.04.29-.04.43h.21s.02-.31.02-.38l.03-.57h0v-.03h0v-.04h0c0-.16.01-.46.02-.48,0,.01.08.31.11.39h0s0,.01,0,.01l.02.07c.04.12.33.98.34,1.01h.16c.02-.05.05-.13.07-.18.1-.31.23-.62.33-.93l.07-.23s.04-.13.05-.14c.01.02,0,.15,0,.19h0v.02c0,.08.02.49.02.54,0,.06,0,.13.01.19v.13s0,.03,0,.04c0,.12.01.25.02.37h.21s-.03-.51-.04-.61c0-.14,0-.33-.03-.46v-.1s0-.07-.01-.11c0-.15-.02-.29-.03-.44h-.28c-.12.32-.27.73-.38,1.04-.01.03-.11.36-.11.36,0,0-.09-.32-.11-.36-.05-.15-.12-.37-.18-.52l-.18-.52h-.28c-.02.24-.03.49-.05.73v.02h0v.12s-.01.09-.01.09h0v.04h0v.02h0v.02h0s0,.05,0,.05v.04s0,0,0,0h0v.02h0v.02h0v.02h0s0,0,0,0Zm.64.18s-.03-.03-.04-.04l.04.04Zm.72-1s.01,0,0,0h0Z"/>
<path class="cls-8" d="m49.82,15.41c.88,6.11-3.24,11.79-9.21,12.69-5.97.9-11.52-3.32-12.4-9.43-.88-6.11,3.24-11.79,9.21-12.69,5.97-.9,11.52,3.32,12.4,9.43Z"/>
<path class="cls-8" d="m39.79,40.71c.74,5.15-2.74,9.94-7.76,10.7-3.11.47-6.09-.72-8.09-2.91v-.68h1.81v-7.37h-1.81v-2.68h-1.44c1.32-2.6,3.79-4.54,6.84-5,5.03-.76,9.71,2.8,10.45,7.95Z"/>
<path class="cls-10" d="m49.62,35.05c.79,5.46-2.9,10.54-8.23,11.34-5.33.8-10.29-2.97-11.08-8.43-.79-5.46,2.9-10.54,8.23-11.34,5.33-.8,10.29,2.97,11.08,8.43Z"/>
<g class="cls-1">
<path class="cls-6" d="m36.8,29.51c.64,4.43-2.35,8.55-6.69,9.21-4.33.65-8.36-2.41-9-6.84-.64-4.43,2.35-8.55,6.69-9.21,4.33-.65,8.36,2.41,9,6.84Z"/>
<path class="cls-12" d="m40.02,40.44c.71,4.91-2.61,9.48-7.41,10.2-4.8.72-9.26-2.67-9.97-7.58-.71-4.91,2.61-9.48,7.41-10.2,4.8-.72,9.26,2.67,9.97,7.58Z"/>
</g>
<path class="cls-5" d="m52.47,26.24c.67,4.61-2.45,8.91-6.96,9.59-4.51.68-8.7-2.51-9.37-7.12-.67-4.61,2.45-8.91,6.96-9.59,4.51-.68,8.7,2.51,9.37,7.12Z"/>
<g class="cls-16">
<path class="cls-5" d="m46.76,20.53c.67,4.61-2.45,8.91-6.96,9.59-4.51.68-8.7-2.51-9.37-7.12-.67-4.61,2.45-8.91,6.96-9.59,4.51-.68,8.7,2.51,9.37,7.12h0Z"/>
<path class="cls-7" d="m49.67,36.2c-.22-5.43-4.75-9.65-10.11-9.42-5.36.23-9.52,4.81-9.3,10.24.22,5.43,4.75,9.65,10.11,9.42,5.36-.23,9.52-4.81,9.3-10.24Z"/>
<path class="cls-12" d="m50.09,16.42c-.22-5.48-4.69-9.75-9.98-9.52-5.29.23-9.4,4.86-9.18,10.34.22,5.48,4.69,9.75,9.98,9.52,5.29-.23,9.4-4.86,9.18-10.34h0Z"/>
</g>
<path class="cls-10" d="m41.73,8.88c.82,5.68-3.02,10.96-8.56,11.8-3.76.57-7.34-1.05-9.51-3.92V4.04c1.55-2.05,3.85-3.51,6.55-3.92,5.55-.84,10.71,3.09,11.53,8.76h0Z"/>
<path class="cls-13" d="m39.5,17.2c.79,5.5-2.92,10.62-8.3,11.43-2.8.42-5.49-.41-7.55-2.07v-1.03h2.47v-6.72h-2.47v-8.04c1.31-1.06,2.9-1.8,4.67-2.07,5.38-.81,10.38,2.99,11.17,8.5h0Z"/>
<g class="cls-15">
<path class="cls-7" d="m41.92,9.87C41.68,4.18,36.95-.23,31.33,0c-5.61.24-9.98,5.03-9.74,10.71.23,5.68,4.97,10.09,10.59,9.86,5.61-.24,9.97-5.03,9.74-10.71Z"/>
</g>
<path class="cls-5" d="m36.8,29.51c.64,4.43-2.35,8.55-6.69,9.21-4.33.65-8.36-2.41-9-6.84-.06-.42-.09-.84-.09-1.25h2.62v-5.96c1.12-1.04,2.54-1.76,4.15-2,4.33-.65,8.36,2.41,9,6.84h0Z"/>
<g class="cls-14">
<path class="cls-11" d="m39.57,17.17c.79,5.48-2.91,10.57-8.26,11.37-5.35.81-10.32-2.98-11.11-8.45-.79-5.48,2.91-10.57,8.26-11.37,5.35-.81,10.32,2.98,11.11,8.45h0Z"/>
<path class="cls-9" d="m49.77,36.09c-.22-5.39-4.79-9.57-10.21-9.35-5.41.22-9.62,4.77-9.39,10.16s4.8,9.57,10.21,9.35c5.41-.22,9.62-4.77,9.39-10.16Z"/>
</g>
<path class="cls-5" d="m35.82,26.62s.1.3.22.56c.12.26.09-.82.09-.82l-.31.26h0Z"/>
<path class="cls-4" d="m23.48,5.65s.3,1.37-.17,1.37c-2.32,0-1.19-1.57-4.65-1.03-2.5.39.93-4,4.82-.34Zm-1.51,39.48c.67-.81.51-2.08.54-2.39.02-.31,1.84-.55,1.77,1-.08,1.55-1.59,3.04-3.32,3.09-1.73.04-3.35-.24-3.04-1.34.37-1.31,2.93,1.02,4.06-.35Zm-4.7-26.97c.36,1.96,1.63,3.92,4.16,3.92,1.27,0,3.07,0,2.89-.98-.36-1.47-1.45,0-3.07-.49-3.25-.49-2.35-2.94-1.99-4.9.36-1.96-1.45-3.92-3.43-3.43,0,2.45,2.89.98,1.63,4.41-2.17.98-2.89-.49-3.98.49.36,1.47,1.99,1.47,3.8.98Zm-7.95,5.39c-3.25-1.47-4.52,3.92-2.35,4.9,2.17.98-.18-1.47.72-3.43.72-1.47,1.27,0,1.63-1.47Zm4.16,2.45c-.9.98,2.71,1.47.72,4.41-1.27,1.96-1.99,2.45-1.45,4.9-15.36,2.45-15.72-14.22-7.05-17.16,2.17-.98,3.43,0,3.61-1.96h-3.25c-1.27-.49-.72-4.41,1.45-6.37,4.52-3.92,4.7-.98,6.69-1.47.54-1.47-1.63-.49-1.63-2.45C12.39.52,21.07.52,21.43.52c6.14.98,8.13,6.37,5.06,10.79l-1.27.49c.18,1.47,1.99.98,2.35,3.43.36,1.47.18,12.75-.18,13.73-1.09,2.45-3.25,1.47-4.88,1.96.54,2.45,5.24-.49,5.24,8.34,0,4.41.9,8.83-2.17,11.28-3.07,1.96-7.95,1.96-11.02,0-4.52-2.94-.18-8.34-.36-9.32-1.81,0-2.17,1.96-2.89,2.94-3.07,0-6.69-5.39-4.88-6.86.54-.98,2.35,0,3.8,0s2.89-.98,3.98-.49c.54.49,5.24,2.45,5.6-.98-1.81,0-2.89,1.47-4.88,0-3.25-2.45,1.99-4.41,1.27-7.85-.18-.49-.54-1.47-1.09-1.96-1.45-.98-1.63,0-1.63,0h0Z"/>
</svg>
