<svg id="ulead-hero" xmlns="http://www.w3.org/2000/svg" viewBox="0 0 470 487.32">
  <g class="circleSpinner">
  <ellipse id="circle-left" class="ulead-hero-9" cx="236.35" cy="287.18" rx="177.12" ry="180.89"/>
  <ellipse id="circle-bottom" class="ulead-hero-4" cx="274.04" cy="306.43" rx="177.12" ry="180.89"/>
  <ellipse id="circle-right" class="ulead-hero-9" cx="292.88" cy="258.32" rx="177.12" ry="180.89"/>
  <ellipse id="circle-top" class="ulead-hero-4" cx="264.62" cy="229.45" rx="177.12" ry="180.89"/>
  </g>
  <g id="icon" class="secondIconSpinner">
    <ellipse class="ulead-hero-9" cx="87.14" cy="88.99" rx="87.14" ry="88.99"/>
    <path class="ulead-hero-1" d="m79.04,65.72h15.52v7.72h-15.52v-7.72Zm-1.94-7.72c-3.21,0-5.82,2.59-5.82,5.79v11.58c0,3.2,2.61,5.79,5.82,5.79h5.82v3.86h-31.04c-2.15,0-3.88,1.73-3.88,3.86s1.73,3.86,3.88,3.86h11.64v3.86h-5.82c-3.21,0-5.82,2.59-5.82,5.79v11.58c0,3.2,2.61,5.79,5.82,5.79h19.4c3.21,0,5.82-2.59,5.82-5.79v-11.58c0-3.2-2.61-5.79-5.82-5.79h-5.82v-3.86h31.04v3.86h-5.82c-3.21,0-5.82,2.59-5.82,5.79v11.58c0,3.2,2.61,5.79,5.82,5.79h19.4c3.21,0,5.82-2.59,5.82-5.79v-11.58c0-3.2-2.61-5.79-5.82-5.79h-5.82v-3.86h11.64c2.15,0,3.88-1.73,3.88-3.86s-1.73-3.86-3.88-3.86h-31.04v-3.86h5.82c3.21,0,5.82-2.59,5.82-5.79v-11.58c0-3.2-2.61-5.79-5.82-5.79h-19.4Zm-17.46,54.05v-7.72h15.52v7.72h-15.52Zm38.81-7.72h15.52v7.72h-15.52v-7.72Z"/>
  </g>
  <ellipse id="circle-center" class="ulead-hero-1" cx="264.12" cy="267.89" rx="177.12" ry="180.89"/>
  <g id="ulead-logo"  class="iconSpinner">
    <path class="ulead-hero-5" d="m227.44,239.96c3.51,0,6.36-2.84,6.36-6.34s-2.85-6.34-6.36-6.34-6.36,2.84-6.36,6.34,2.85,6.34,6.36,6.34Z"/>
    <path class="ulead-hero-2" d="m244.53,239.96c3.51,0,6.36-2.84,6.36-6.34s-2.85-6.34-6.36-6.34-6.36,2.84-6.36,6.34,2.85,6.34,6.36,6.34Z"/>
    <path class="ulead-hero-6" d="m261.61,239.96c3.51,0,6.36-2.84,6.36-6.34s-2.85-6.34-6.36-6.34-6.36,2.84-6.36,6.34,2.85,6.34,6.36,6.34Z"/>
    <path class="ulead-hero-7" d="m278.69,225.68c3.51,0,6.36-2.84,6.36-6.34s-2.85-6.34-6.36-6.34-6.36,2.84-6.36,6.34,2.85,6.34,6.36,6.34Z"/>
    <path class="ulead-hero-3" d="m295.77,239.96c3.51,0,6.36-2.84,6.36-6.34s-2.85-6.34-6.36-6.34-6.36,2.84-6.36,6.34,2.85,6.34,6.36,6.34Z"/>
    <path class="ulead-hero-8" d="m348.11,259.37h-2.72v-6.04h-2.71v-2.28h8.17v2.28h-2.74v6.04Zm8.77-5.59l2.26-2.76h2.86v8.35h-2.77v-2.48l.2-2.42-2.28,3.05h-.57l-2.23-3.05.2,2.42v2.48h-2.77v-8.35h2.86l2.26,2.76Z"/>
    <path class="ulead-hero-8" d="m184.67,262.31v14.06c0,4.09,2.24,7.2,6.51,7.2s6.89-3.43,6.89-7.52v-13.74h6.61v26.93h-5.96l-.44-3.65c-2.79,2.73-5.36,4.03-9.13,4.03-6.45,0-11.15-4.85-11.15-13.19v-14.12h6.67,0Z"/>
    <path class="ulead-hero-8" d="m218.29,251.02v31.51h19.68v6.65h-26.89v-38.16h7.21Z"/>
    <path class="ulead-hero-8" d="m248.24,278.11c.44,3.33,3.34,5.72,8.04,5.72,2.46,0,5.69-.93,7.21-2.51l4.26,4.2c-2.84,2.94-7.49,4.36-11.59,4.36-9.29,0-14.82-5.72-14.82-14.34s5.58-14.06,14.32-14.06,14.65,5.56,13.61,16.63h-21.04Zm14.65-5.5c-.44-3.49-3.17-5.23-7-5.23-3.61,0-6.56,1.74-7.54,5.23h14.54Z"/>
    <path class="ulead-hero-8" d="m295.79,262.31h6.39v26.88h-6.29l-.33-3.92c-1.53,3.16-5.74,4.69-8.74,4.74-7.98.05-13.88-4.85-13.88-14.28s6.18-14.12,14.05-14.06c3.61,0,7.05,1.69,8.58,4.36l.22-3.7h0Zm-16.18,13.41c0,5.12,3.55,8.18,7.98,8.18,10.49,0,10.49-16.3,0-16.3-4.43,0-7.98,3-7.98,8.12Z"/>
    <path class="ulead-hero-8" d="m335.8,251.08v38.1h-6.23l-.44-3.71c-2.08,3.22-5.41,4.31-8.69,4.31-7.93,0-13.88-5.23-13.88-14.06,0-9.27,5.85-14.06,13.72-14.06,2.84,0,7.27,1.53,8.86,4.31v-14.88h6.67Zm-22.57,24.64c0,4.69,3.39,7.9,7.65,7.9s7.82-3.05,7.82-7.9-3.61-7.85-7.82-7.85-7.65,3-7.65,7.85Z"/>
  </g>
</svg>
