<svg id="ulead-portal" xmlns="http://www.w3.org/2000/svg" viewBox="0 0 400 418.35">
  <g class="circleSpinner">
    <circle id="circle-right" class="ulead-portal-9" cx="227.52" cy="227.52" r="172.48"/>
    <circle id="circle-bottom" class="ulead-portal-4" cx="190.83" cy="245.87" r="172.48"/>
    <circle id="circle-left" class="ulead-portal-9" cx="172.48" cy="200" r="172.48"/>
    <circle id="circle-top" class="ulead-portal-4" cx="200" cy="172.48" r="172.48"/>
    <circle id="circle-center" class="ulead-portal-1" cx="200" cy="209.17" r="172.48"/>
  </g>
  <g id="uLead_Logo" class="iconSpinner">
    <path class="ulead-portal-5" d="m160.96,198.61c3.22,0,5.83-2.6,5.83-5.8s-2.61-5.8-5.83-5.8-5.83,2.6-5.83,5.8,2.61,5.8,5.83,5.8Z"/>
    <path class="ulead-portal-2" d="m176.63,198.61c3.22,0,5.83-2.6,5.83-5.8s-2.61-5.8-5.83-5.8-5.83,2.6-5.83,5.8,2.61,5.8,5.83,5.8Z"/>
    <path class="ulead-portal-6" d="m192.3,198.61c3.22,0,5.83-2.6,5.83-5.8s-2.61-5.8-5.83-5.8-5.83,2.6-5.83,5.8,2.61,5.8,5.83,5.8Z"/>
    <path class="ulead-portal-7" d="m207.97,185.54c3.22,0,5.83-2.6,5.83-5.8s-2.61-5.8-5.83-5.8-5.83,2.6-5.83,5.8,2.61,5.8,5.83,5.8Z"/>
    <path class="ulead-portal-3" d="m223.63,198.61c3.22,0,5.83-2.6,5.83-5.8s-2.61-5.8-5.83-5.8-5.83,2.6-5.83,5.8,2.61,5.8,5.83,5.8Z"/>
    <path class="ulead-portal-8" d="m271.65,216.38h-2.49v-5.53h-2.49v-2.09h7.49v2.09h-2.52v5.53Zm8.04-5.11l2.07-2.53h2.62v7.64h-2.54v-2.27l.18-2.22-2.09,2.79h-.52l-2.05-2.79.18,2.22v2.27h-2.54v-7.64h2.62l2.07,2.53Z"/>
    <path class="ulead-portal-8" d="m121.73,219.07v12.87c0,3.74,2.06,6.58,5.97,6.58s6.32-3.14,6.32-6.89v-12.57h6.07v24.65h-5.47l-.4-3.34c-2.56,2.49-4.91,3.69-8.37,3.69-5.91,0-10.23-4.44-10.23-12.07v-12.92h6.12,0Z"/>
    <path class="ulead-portal-8" d="m152.57,208.74v28.84h18.05v6.09h-24.67v-34.92h6.62Z"/>
    <path class="ulead-portal-8" d="m180.04,233.53c.4,3.04,3.06,5.24,7.37,5.24,2.26,0,5.21-.85,6.62-2.29l3.91,3.84c-2.61,2.7-6.87,3.99-10.63,3.99-8.52,0-13.59-5.24-13.59-13.12s5.12-12.87,13.14-12.87,13.44,5.09,12.48,15.22h-19.3Zm13.43-5.04c-.4-3.19-2.91-4.79-6.42-4.79-3.31,0-6.02,1.6-6.92,4.79h13.34Z"/>
    <path class="ulead-portal-8" d="m223.65,219.07h5.87v24.6h-5.76l-.3-3.59c-1.4,2.89-5.26,4.29-8.02,4.34-7.32.05-12.73-4.44-12.73-13.07s5.66-12.92,12.89-12.87c3.31,0,6.47,1.55,7.87,3.99l.2-3.39h0Zm-14.84,12.27c0,4.69,3.26,7.48,7.32,7.48,9.62,0,9.62-14.92,0-14.92-4.06,0-7.32,2.74-7.32,7.43Z"/>
    <path class="ulead-portal-8" d="m260.36,208.79v34.87h-5.72l-.4-3.39c-1.91,2.94-4.96,3.94-7.97,3.94-7.27,0-12.73-4.79-12.73-12.87,0-8.48,5.36-12.87,12.58-12.87,2.61,0,6.67,1.4,8.12,3.94v-13.62h6.12Zm-20.71,22.55c0,4.29,3.11,7.24,7.02,7.24s7.17-2.79,7.17-7.24-3.31-7.18-7.17-7.18-7.02,2.74-7.02,7.18Z"/>
  </g>
</svg>
