<svg id="Layer_1" xmlns="http://www.w3.org/2000/svg" xmlns:xlink="http://www.w3.org/1999/xlink" viewBox="0 0 208.64 72.33">
<defs>
<style>
.cls-1{mask:url(#mask);}.cls-2{fill:#fff;}.cls-3,.cls-4{fill:#38576b;}.cls-4,.cls-5,.cls-6,.cls-7,.cls-8,.cls-9,.cls-10,.cls-11,.cls-12,.cls-13{fill-rule:evenodd;}.cls-5{fill:#46c3f1;}.cls-6{fill:#8698a8;}.cls-7{fill:#dbf266;}.cls-8{fill:#bd338d;}.cls-9{fill:#7bd8fa;}.cls-10{fill:#b9d42f;}.cls-11{fill:#ffea82;}.cls-12{fill:#eb4db4;}.cls-13{fill:#ffd407;}.cls-14{mask:url(#mask-3);}.cls-15{mask:url(#mask-2);}.cls-16{mask:url(#mask-1);}</style>
<mask id="mask" x="29.44" y="31.41" width="40.17" height="39.17" maskUnits="userSpaceOnUse">
<g id="mask0_1223_88">
<path class="cls-2" d="m69.46,48.75c1.1,7.59-4.06,14.65-11.52,15.77-7.46,1.12-14.41-4.13-15.51-11.72-1.1-7.59,4.06-14.65,11.52-15.77,7.46-1.12,14.41,4.13,15.51,11.72Z"/>
</g>
</mask>
<mask id="mask-1" x="42.35" y="9.59" width="31.23" height="55.01" maskUnits="userSpaceOnUse">
<g id="mask1_1223_88">
<path class="cls-2" d="m73.45,36.49c.93,6.42-3.43,12.39-9.74,13.34-6.31.95-12.18-3.49-13.11-9.91-.93-6.42,3.43-12.39,9.74-13.33,6.31-.95,12.18,3.49,13.11,9.91Z"/>
</g>
</mask>
<mask id="mask-2" x="30.21" y="0" width="28.48" height="39.99" maskUnits="userSpaceOnUse">
<g id="mask2_1223_88">
<path class="cls-2" d="m55.29,23.93c1.11,7.65-4.09,14.78-11.62,15.9-3.91.59-7.69-.56-10.56-2.88v-1.44h3.45v-9.35h-3.45v-11.18c1.83-1.48,4.06-2.5,6.54-2.88,7.53-1.13,14.53,4.16,15.64,11.82h0Z"/>
</g>
</mask>
<mask id="mask-3" x="28.14" y="11.98" width="41.54" height="52.36" maskUnits="userSpaceOnUse">
<g id="mask3_1223_88">
<path class="cls-2" d="m51.51,41.05c.9,6.16-3.29,11.9-9.36,12.81-6.06.91-11.7-3.35-12.59-9.52-.09-.59-.12-1.17-.12-1.74h3.67v-8.28c1.57-1.44,3.56-2.44,5.81-2.78,6.06-.91,11.7,3.35,12.59,9.52h0Z"/>
</g>
</mask>
</defs>
<path class="cls-8" d="m69.75,21.43c1.23,8.5-4.54,16.4-12.9,17.65-8.35,1.25-16.12-4.62-17.36-13.11s4.54-16.4,12.9-17.65c8.35-1.25,16.12,4.62,17.36,13.12Z"/>
<path class="cls-8" d="m55.7,56.62c1.04,7.16-3.83,13.82-10.87,14.88-4.36.65-8.53-.99-11.32-4.04v-.94h2.53v-10.26h-2.53v-3.73h-2.01c1.84-3.62,5.31-6.31,9.57-6.95,7.04-1.05,13.59,3.89,14.63,11.05Z"/>
<path class="cls-10" d="m69.46,48.75c1.1,7.59-4.06,14.65-11.52,15.77-7.46,1.12-14.41-4.13-15.51-11.72-1.1-7.59,4.06-14.65,11.52-15.77,7.46-1.12,14.41,4.13,15.51,11.72Z"/>
<g class="cls-1">
<path class="cls-6" d="m51.51,41.05c.9,6.17-3.29,11.9-9.36,12.81-6.06.91-11.7-3.35-12.59-9.52-.89-6.16,3.3-11.9,9.36-12.81,6.06-.91,11.7,3.35,12.59,9.52Z"/>
<path class="cls-12" d="m56.03,56.25c.99,6.83-3.65,13.18-10.37,14.19-6.72,1.01-12.96-3.72-13.96-10.55-.99-6.83,3.65-13.18,10.37-14.19,6.71-1.01,12.96,3.71,13.95,10.55Z"/>
</g>
<path class="cls-5" d="m73.45,36.49c.93,6.42-3.43,12.39-9.74,13.34-6.31.95-12.18-3.49-13.11-9.91-.93-6.42,3.43-12.39,9.74-13.33,6.31-.95,12.18,3.49,13.11,9.91Z"/>
<g class="cls-16">
<path class="cls-5" d="m65.46,28.56c.93,6.42-3.43,12.39-9.74,13.34-6.31.95-12.18-3.49-13.11-9.91-.93-6.42,3.43-12.39,9.74-13.34,6.31-.94,12.18,3.49,13.11,9.91h0Z"/>
<path class="cls-7" d="m69.53,50.35c-.31-7.55-6.65-13.42-14.15-13.11-7.5.31-13.33,6.69-13.02,14.24.31,7.55,6.65,13.42,14.15,13.11,7.5-.31,13.33-6.69,13.02-14.24Z"/>
<path class="cls-12" d="m70.12,22.84c-.31-7.63-6.56-13.56-13.97-13.24-7.41.32-13.16,6.76-12.86,14.39.31,7.63,6.57,13.56,13.97,13.24,7.41-.32,13.16-6.76,12.85-14.39h0Z"/>
</g>
<path class="cls-10" d="m58.41,12.36c1.14,7.9-4.22,15.24-11.99,16.41-5.26.79-10.27-1.46-13.31-5.45V5.62c2.17-2.85,5.38-4.89,9.17-5.46,7.76-1.16,14.99,4.29,16.13,12.19h0Z"/>
<path class="cls-13" d="m55.29,23.93c1.11,7.65-4.09,14.78-11.62,15.9-3.91.59-7.69-.56-10.56-2.88v-1.44h3.45v-9.35h-3.45v-11.18c1.83-1.48,4.06-2.5,6.54-2.88,7.53-1.13,14.53,4.16,15.64,11.82h0Z"/>
<g class="cls-15">
<path class="cls-7" d="m58.68,13.72C58.35,5.82,51.72-.32,43.86.01c-7.86.33-13.97,7-13.64,14.9.33,7.9,6.96,14.04,14.82,13.71,7.86-.33,13.96-7,13.64-14.9Z"/>
</g>
<path class="cls-5" d="m51.51,41.05c.9,6.16-3.29,11.9-9.36,12.81-6.06.91-11.7-3.35-12.59-9.52-.09-.59-.12-1.17-.12-1.74h3.67v-8.28c1.57-1.44,3.56-2.44,5.81-2.78,6.06-.91,11.7,3.35,12.59,9.52h0Z"/>
<g class="cls-14">
<path class="cls-11" d="m55.4,23.89c1.1,7.62-4.07,14.7-11.56,15.82-7.49,1.12-14.45-4.14-15.55-11.75-1.1-7.62,4.07-14.7,11.56-15.82,7.49-1.12,14.45,4.14,15.56,11.75h0Z"/>
<path class="cls-9" d="m69.66,50.2c-.32-7.49-6.71-13.31-14.29-13-7.57.31-13.46,6.64-13.15,14.13.31,7.49,6.71,13.31,14.29,13,7.57-.31,13.46-6.64,13.15-14.13Z"/>
</g>
<path class="cls-5" d="m50.14,37.03s.14.41.31.77c.17.37.12-1.14.12-1.14l-.43.36h0Z"/>
<path class="cls-4" d="m32.87,7.86s.41,1.91-.23,1.91c-3.25,0-1.67-2.19-6.52-1.44-3.49.54,1.31-5.56,6.75-.47Zm-2.11,54.92c.94-1.13.72-2.9.75-3.33.03-.43,2.58-.77,2.47,1.38-.11,2.15-2.22,4.23-4.65,4.29-2.42.06-4.69-.34-4.26-1.86.52-1.83,4.1,1.42,5.68-.49Zm-6.58-37.51c.5,2.73,2.28,5.46,5.82,5.46,1.77,0,4.3,0,4.05-1.36-.5-2.05-2.02,0-4.3-.68-4.55-.68-3.29-4.09-2.78-6.82.51-2.73-2.02-5.46-4.81-4.77,0,3.41,4.05,1.36,2.28,6.14-3.04,1.36-4.05-.68-5.57.68.5,2.05,2.78,2.05,5.31,1.36Zm-11.13,7.5c-4.56-2.05-6.33,5.46-3.29,6.82,3.04,1.36-.25-2.05,1.01-4.77,1.01-2.05,1.77,0,2.28-2.05Zm5.82,3.41c-1.26,1.36,3.79,2.05,1.01,6.14-1.77,2.73-2.78,3.41-2.02,6.82C-3.65,52.55-4.16,29.36,7.99,25.27c3.03-1.36,4.81,0,5.06-2.73h-4.55c-1.77-.68-1.01-6.14,2.02-8.86,6.33-5.46,6.58-1.36,9.36-2.05.76-2.05-2.28-.68-2.28-3.41C17.35.72,29.49.72,29.99.72c8.6,1.36,11.38,8.86,7.08,15l-1.77.68c.25,2.05,2.78,1.36,3.29,4.77.51,2.05.25,17.73-.25,19.1-1.52,3.41-4.55,2.05-6.83,2.73.76,3.41,7.34-.68,7.34,11.6,0,6.14,1.26,12.28-3.04,15.69-4.3,2.73-11.13,2.73-15.43,0-6.33-4.09-.25-11.6-.5-12.96-2.53,0-3.04,2.73-4.05,4.09-4.3,0-9.36-7.5-6.83-9.55.76-1.36,3.29,0,5.31,0s4.05-1.36,5.57-.68c.76.68,7.34,3.41,7.84-1.36-2.53,0-4.05,2.05-6.83,0-4.56-3.41,2.78-6.14,1.77-10.91-.25-.68-.76-2.05-1.52-2.73-2.02-1.36-2.28,0-2.28,0h0Z"/>
<path class="cls-3" d="m89.98,30.16v10.35c0,3.01,1.65,5.3,4.78,5.3s5.06-2.53,5.06-5.54v-10.11h4.86v19.82h-4.38l-.32-2.69c-2.05,2.01-3.94,2.97-6.71,2.97-4.74,0-8.19-3.57-8.19-9.71v-10.39h4.9Z"/>
<path class="cls-3" d="m133.9,29.59l-9.16,12.2h-1.04l-8.96-12.24v20.42h-5.3v-28.09h6.11l8.8,12.08,8.8-12.08h6.07v28.09h-5.3v-20.39h0Z"/>
<path class="cls-3" d="m159.94,30.16h4.7v19.78h-4.62l-.24-2.89c-1.13,2.33-4.22,3.45-6.43,3.49-5.87.04-10.21-3.57-10.21-10.51s4.54-10.39,10.33-10.35c2.65,0,5.18,1.24,6.31,3.21l.16-2.73h0Zm-11.89,9.87c0,3.77,2.61,6.02,5.86,6.02,7.72,0,7.72-12,0-12-3.25,0-5.86,2.21-5.86,5.98Z"/>
<path class="cls-3" d="m168.78,58.2v-28.05h4.58l.32,2.73c1.53-2.21,4.18-3.17,6.43-3.17,6.11,0,10.16,4.53,10.16,10.35s-3.66,10.35-10.01,10.35c-2.09,0-5.18-.64-6.59-2.81v10.59h-4.9Zm16.59-18.14c0-3.09-2.09-5.62-5.63-5.62s-5.62,2.53-5.62,5.62,2.29,5.62,5.62,5.62,5.63-2.53,5.63-5.62Z"/>
<path class="cls-3" d="m198.45,35.49h-1.99v-4.44h-1.99v-1.68h5.99v1.68h-2.01v4.44Zm6.43-4.1l1.66-2.03h2.1v6.13h-2.03v-1.82l.15-1.78-1.67,2.24h-.42l-1.64-2.24.15,1.78v1.82h-2.03v-6.13h2.1l1.66,2.03Z"/>
</svg>
