<svg id="umap-portal" xmlns="http://www.w3.org/2000/svg" viewBox="0 0 400 418.35">
  <circle id="circle-left" class="umap-portal-7" cx="172.48" cy="227.52" r="172.48"/>
  <circle id="circle-bottom" class="umap-portal-1" cx="209.17" cy="245.87" r="172.48"/>
  <circle id="circle-right" class="umap-portal-7" cx="227.52" cy="200" r="172.48"/>
  <circle id="circle-top" class="umap-portal-1" cx="200" cy="172.48" r="172.48"/>
  <circle id="circle-white-center" class="umap-portal-2" cx="200" cy="209.17" r="172.48"/>
  <g id="umap-logo">
    <g id="Brain">
    <path class="umap-portal-7" d="m150.15,196.56c.15.83.23,1.69.23,2.56,0,.95-.1,1.88-.28,2.78,1.96-1.47,4.39-2.34,7.03-2.34,2.5,0,4.82.78,6.72,2.12.74-1.72,1.14-3.61,1.14-5.6,0-7.25-5.42-13.24-12.42-14.15.67,1.65,1.04,3.45,1.04,5.35,0,3.55-1.31,6.8-3.47,9.29Z"/>
    <path class="umap-portal-6" d="m128.66,187.37c2.21-1.45,4.85-2.29,7.69-2.29,1.57,0,3.08.26,4.48.73,4.77,1.61,8.39,5.71,9.32,10.75,2.16-2.49,3.47-5.73,3.47-9.29,0-1.89-.37-3.7-1.04-5.35-2.11-5.18-7.19-8.83-13.13-8.83-4.02,0-7.64,1.67-10.22,4.36l-.95,7.62.39,2.29Z"/>
    <path class="umap-portal-11" d="m168.86,211.28c0-3.97-1.98-7.49-5-9.61-2.09,4.89-6.84,8.38-12.43,8.64,6.24.09,11.46,4.4,12.93,10.2,2.74-2.15,4.5-5.49,4.5-9.24Z"/>
    <path class="umap-portal-1" d="m150.11,201.89c-.6,2.97-2.13,5.6-4.28,7.57,1.47.54,3.06.84,4.72.86.23-.01.45-.02.68-.02.07,0,.13,0,.2,0,5.59-.27,10.34-3.75,12.43-8.64-1.9-1.33-4.22-2.12-6.72-2.12-2.64,0-5.07.87-7.03,2.34Z"/>
    <path class="umap-portal-6" d="m146.72,216.66c-.1,1.28-.42,2.5-.92,3.62,3.38,2.42,5.59,6.37,5.59,10.85,0,2.24-.55,4.34-1.53,6.19.45.04.9.07,1.36.07,7.48,0,13.54-6.06,13.54-13.54,0-1.15-.14-2.27-.42-3.34-1.99,1.56-4.5,2.49-7.22,2.49-4.53,0-8.46-2.57-10.41-6.34Z"/>
    <path class="umap-portal-8" d="m151.43,210.32c-.23.01-.46.02-.69.02-.06,0-.13,0-.19,0-1.65.08-3.23.46-4.67,1.08.57,1.34.88,2.81.88,4.35,0,.3-.01.6-.04.9,1.95,3.76,5.88,6.34,10.41,6.34,2.72,0,5.23-.93,7.22-2.49-1.47-5.8-6.69-10.11-12.93-10.2Z"/>
    <path class="umap-portal-12" d="m150.55,210.33c.06,0,.12,0,.19,0,.23,0,.46,0,.69-.02-.07,0-.13,0-.2,0-.23,0-.46,0-.68.02Z"/>
    <path class="umap-portal-7" d="m137.99,226.66c-.77.17-1.56.26-2.38.26-1.8,0-3.5-.43-5.01-1.18h0s.71,15.35.71,15.35h-2.08c2.35,2.09,5.45,3.37,8.85,3.37,5.12,0,9.57-2.89,11.8-7.13-5.9-.59-10.68-4.96-11.89-10.66Z"/>
    <path class="umap-portal-1" d="m145.81,220.28c-1.42,3.21-4.31,5.62-7.82,6.38,1.2,5.7,5.99,10.07,11.89,10.66.97-1.85,1.53-3.96,1.53-6.19,0-4.47-2.21-8.43-5.59-10.85Z"/>
    <path class="umap-portal-11" d="m145.51,209.75c-.11.1-.22.19-.34.28-2.41,1.95-5.48,3.12-8.83,3.12s-6.41-1.17-8.82-3.12l-3.09,5.72,6.15,9.97c1.51.76,3.21,1.18,5.01,1.18.82,0,1.62-.09,2.38-.26-.19-.91-.29-1.85-.29-2.81,0-2.16.5-4.19,1.4-6,1.35-2.72,3.58-4.92,6.33-6.23.15-.07.3-.14.46-.21,1.44-.62,3.02-1,4.67-1.08-1.66-.02-3.24-.32-4.72-.86-.1.1-.21.19-.32.28Z"/>
    <path class="umap-portal-5" d="m139.09,217.85c-.9,1.81-1.4,3.85-1.4,6,0,.96.1,1.91.29,2.81,3.51-.76,6.4-3.17,7.82-6.38.5-1.12.82-2.34.92-3.62.02-.3.04-.6.04-.9,0-1.54-.31-3.01-.88-4.35-.15.07-.31.14-.46.21-2.74,1.31-4.98,3.51-6.33,6.23Z"/>
    <path class="umap-portal-8" d="m137.46,201.3c.65.09,1.31.14,1.99.14,4.27,0,8.1-1.89,10.7-4.88-.93-5.04-4.55-9.14-9.32-10.75-1.41-.47-2.92-.73-4.48-.73-2.84,0-5.48.84-7.69,2.29l1.83,10.88c1.96,1.6,4.35,2.68,6.97,3.05Z"/>
    <path class="umap-portal-4" d="m139.45,201.44c-.67,0-1.34-.05-1.99-.14-2.62-.37-5.01-1.45-6.97-3.05l.81,4.79-1.83,3.4c1.76-1.16,3.87-1.84,6.13-1.84,1.59,0,3.1.33,4.47.93,1.68.73,3.14,1.87,4.26,3.28.31.38.59.79.84,1.21.11-.09.23-.19.34-.28.11-.09.21-.19.32-.28,2.15-1.97,3.68-4.6,4.28-7.57.18-.9.28-1.83.28-2.78,0-.87-.08-1.73-.23-2.56-2.6,2.99-6.43,4.88-10.7,4.88Z"/>
    <path class="umap-portal-3" d="m140.07,205.54c-1.37-.6-2.88-.93-4.47-.93-2.26,0-4.37.68-6.13,1.84l-1.94,3.6c2.41,1.95,5.48,3.12,8.82,3.12s6.42-1.17,8.83-3.12c-.25-.42-.54-.83-.84-1.21-1.13-1.41-2.59-2.55-4.26-3.28Z"/>
    <path class="umap-portal-10" d="m128.13,180.9s.41,1.91-.23,1.91c-3.25,0-1.68-2.19-6.52-1.44-3.5.54,1.31-5.57,6.76-.47Zm-2.11,55c.94-1.13.72-2.9.75-3.33.03-.43,2.58-.77,2.47,1.39-.11,2.15-2.22,4.24-4.65,4.3-2.43.06-4.7-.34-4.26-1.87.52-1.83,4.1,1.42,5.69-.49Zm-6.59-37.56c.5,2.73,2.28,5.46,5.83,5.46,1.77,0,4.31,0,4.05-1.37-.5-2.05-2.03,0-4.31-.68-4.56-.68-3.29-4.1-2.79-6.83.51-2.73-2.03-5.46-4.81-4.78,0,3.41,4.05,1.37,2.28,6.15-3.04,1.36-4.05-.68-5.57.68.51,2.05,2.79,2.05,5.32,1.37Zm-11.15,7.51c-4.56-2.05-6.33,5.46-3.29,6.83,3.04,1.37-.25-2.05,1.01-4.78,1.01-2.05,1.77,0,2.28-2.05Zm5.83,3.41c-1.27,1.37,3.8,2.05,1.01,6.15-1.77,2.73-2.79,3.42-2.03,6.83-21.53,3.42-22.04-19.8-9.88-23.9,3.04-1.37,4.81,0,5.07-2.73h-4.56c-1.77-.68-1.01-6.15,2.03-8.88,6.33-5.46,6.59-1.37,9.37-2.05.76-2.05-2.28-.68-2.28-3.41-.25-7.51,11.91-7.51,12.41-7.51,8.61,1.37,11.4,8.88,7.09,15.02l-1.77.68c.25,2.05,2.79,1.36,3.29,4.78.51,2.05.25,17.76-.25,19.12-1.52,3.42-4.56,2.05-6.84,2.73.76,3.41,7.35-.68,7.35,11.61,0,6.15,1.27,12.29-3.04,15.71-4.3,2.73-11.15,2.73-15.45,0-6.33-4.1-.25-11.61-.51-12.98-2.53,0-3.04,2.73-4.05,4.1-4.31,0-9.37-7.51-6.84-9.56.76-1.37,3.29,0,5.32,0s4.05-1.37,5.57-.68c.76.68,7.35,3.42,7.85-1.36-2.53,0-4.05,2.05-6.84,0-4.56-3.42,2.79-6.15,1.77-10.93-.25-.68-.76-2.05-1.52-2.73-2.03-1.36-2.28,0-2.28,0h0Z"/>
    </g>
    <g id="Text">
    <path class="umap-portal-9" d="m185.2,203.17v10.35c0,3.01,1.65,5.3,4.78,5.3s5.06-2.53,5.06-5.54v-10.11h4.86v19.82h-4.38l-.32-2.69c-2.05,2.01-3.94,2.97-6.71,2.97-4.74,0-8.19-3.57-8.19-9.71v-10.39h4.9Z"/>
    <path class="umap-portal-9" d="m229.12,202.6l-9.16,12.2h-1.04l-8.96-12.24v20.42h-5.3v-28.09h6.11l8.8,12.08,8.8-12.08h6.07v28.09h-5.3v-20.39h0Z"/>
    <path class="umap-portal-9" d="m255.15,203.17h4.7v19.78h-4.62l-.24-2.89c-1.13,2.33-4.22,3.45-6.43,3.49-5.87.04-10.21-3.57-10.21-10.51s4.54-10.39,10.33-10.35c2.65,0,5.18,1.24,6.31,3.21l.16-2.73h0Zm-11.89,9.87c0,3.77,2.61,6.02,5.86,6.02,7.72,0,7.72-12,0-12-3.25,0-5.86,2.21-5.86,5.98Z"/>
    <path class="umap-portal-9" d="m263.99,231.21v-28.05h4.58l.32,2.73c1.53-2.21,4.18-3.17,6.43-3.17,6.11,0,10.16,4.53,10.16,10.35s-3.66,10.35-10.01,10.35c-2.09,0-5.18-.64-6.59-2.81v10.59h-4.9Zm16.59-18.14c0-3.09-2.09-5.62-5.63-5.62s-5.62,2.53-5.62,5.62,2.29,5.62,5.62,5.62,5.63-2.53,5.63-5.62Z"/>
    <path class="umap-portal-9" d="m293.67,208.5h-1.99v-4.44h-1.99v-1.68h5.99v1.68h-2.01v4.44Zm6.43-4.1l1.66-2.03h2.1v6.13h-2.03v-1.82l.15-1.78-1.67,2.24h-.42l-1.64-2.24.15,1.78v1.82h-2.03v-6.13h2.1l1.66,2.03Z"/>
    </g>
  </g>
</svg>
