<svg id="umap-hero" xmlns="http://www.w3.org/2000/svg" viewBox="0 0 470 487.32">
  <ellipse id="circle-left" class="umap-hero-1" cx="236.35" cy="287.18" rx="177.12" ry="180.89"/>
  <ellipse id="circle-bottom" class="umap-hero-7" cx="274.04" cy="306.43" rx="177.12" ry="180.89"/>
  <ellipse id="circle-right" class="umap-hero-1" cx="292.88" cy="258.32" rx="177.12" ry="180.89"/>
  <ellipse id="circle-top" class="umap-hero-7" cx="264.62" cy="229.45" rx="177.12" ry="180.89"/>
  <g id="Icon">
    <ellipse class="umap-hero-1" cx="87.14" cy="88.99" rx="87.14" ry="88.99"/>
    <path class="umap-hero-2" d="m54.58,64.32h10.53c1.59,0,2.87-1.26,2.87-2.82s-1.28-2.82-2.87-2.82h-12.45c-2.12,0-3.83,1.68-3.83,3.76v12.22c0,1.56,1.28,2.82,2.87,2.82s2.87-1.26,2.87-2.82v-10.34Zm15.3,20.69c.75,0,1.5-.15,2.2-.43.7-.28,1.33-.7,1.86-1.22.53-.52.96-1.15,1.25-1.83.29-.68.44-1.42.44-2.16s-.15-1.47-.44-2.16c-.29-.68-.71-1.31-1.25-1.83-.53-.52-1.17-.94-1.86-1.22-.7-.28-1.44-.43-2.2-.43s-1.5.15-2.2.43-1.33.7-1.86,1.22c-.53.52-.96,1.15-1.25,1.83-.29.68-.44,1.42-.44,2.16s.15,1.47.44,2.16c.29.68.71,1.31,1.25,1.83.53.52,1.17.94,1.86,1.22s1.44.43,2.2.43Zm-3.17,3.76c-3.52,0-6.38,2.81-6.38,6.26,0,1.73,1.42,3.14,3.2,3.14h6.71c.96-4.01,3.93-7.25,7.8-8.65-.9-.48-1.94-.75-3.03-.75h-8.31Zm44.05,9.4c1.76,0,3.2-1.4,3.2-3.14,0-3.47-2.86-6.26-6.38-6.26h-8.31c-1.1,0-2.13.27-3.03.75,3.88,1.4,6.85,4.64,7.8,8.65h6.71Zm-10.7,0c-1.03-2.86-3.58-5.01-6.69-5.52-.47-.08-.95-.12-1.44-.12h-9.58c-.49,0-.97.04-1.44.12-3.11.52-5.66,2.67-6.69,5.52-.32.88-.49,1.83-.49,2.82,0,1.56,1.28,2.82,2.87,2.82h21.07c1.59,0,2.87-1.26,2.87-2.82,0-.99-.17-1.94-.49-2.82Zm4.32-13.16c.75,0,1.5-.15,2.2-.43.7-.28,1.33-.7,1.86-1.22.53-.52.96-1.15,1.25-1.83.29-.68.44-1.42.44-2.16s-.15-1.47-.44-2.16c-.29-.68-.71-1.31-1.25-1.83-.53-.52-1.17-.94-1.86-1.22-.7-.28-1.44-.43-2.2-.43s-1.5.15-2.2.43-1.33.7-1.86,1.22c-.53.52-.96,1.15-1.25,1.83-.29.68-.44,1.42-.44,2.16s.15,1.47.44,2.16c.29.68.71,1.31,1.25,1.83.53.52,1.17.94,1.86,1.22s1.44.43,2.2.43Zm-9.58-3.76c0-2-.81-3.91-2.24-5.32-1.44-1.41-3.39-2.2-5.42-2.2s-3.98.79-5.42,2.2c-1.44,1.41-2.24,3.32-2.24,5.32s.81,3.91,2.24,5.32,3.39,2.2,5.42,2.2,3.98-.79,5.42-2.2,2.24-3.32,2.24-5.32Zm14.36-16.93h10.53v10.34c0,1.56,1.28,2.82,2.87,2.82s2.87-1.26,2.87-2.82v-12.22c0-2.08-1.71-3.76-3.83-3.76h-12.45c-1.59,0-2.87,1.26-2.87,2.82s1.28,2.82,2.87,2.82Zm-54.58,48.89v-10.34c0-1.56-1.28-2.82-2.87-2.82s-2.87,1.26-2.87,2.82v12.22c0,2.08,1.71,3.76,3.83,3.76h12.45c1.59,0,2.87-1.26,2.87-2.82s-1.28-2.82-2.87-2.82h-10.53Zm54.58,0c-1.59,0-2.87,1.26-2.87,2.82s1.28,2.82,2.87,2.82h12.45c2.12,0,3.83-1.68,3.83-3.76v-12.22c0-1.56-1.28-2.82-2.87-2.82s-2.87,1.26-2.87,2.82v10.34h-10.53Z"/>
  </g>
  <ellipse id="circle-white-center" class="umap-hero-2" cx="264.62" cy="267.94" rx="177.12" ry="180.89"/>
  <g id="umap-logo">
    <g id="Brain">
      <path class="umap-hero-7" d="m212.59,254.64c.16.87.24,1.76.24,2.67,0,.99-.1,1.96-.29,2.9,2.04-1.53,4.59-2.44,7.34-2.44,2.61,0,5.03.82,7.02,2.21.77-1.8,1.19-3.77,1.19-5.85,0-7.58-5.66-13.83-12.97-14.77.7,1.72,1.09,3.61,1.09,5.58,0,3.71-1.37,7.1-3.62,9.7Z"/>
      <path class="umap-hero-6" d="m190.14,245.05c2.31-1.51,5.06-2.39,8.03-2.39,1.64,0,3.21.27,4.68.76,4.98,1.68,8.76,5.96,9.74,11.22,2.26-2.6,3.62-5.99,3.62-9.7,0-1.98-.39-3.86-1.09-5.58-2.2-5.41-7.51-9.22-13.71-9.22-4.2,0-7.98,1.75-10.68,4.55l-.99,7.96.4,2.39Z"/>
      <path class="umap-hero-11" d="m232.12,270.02c0-4.15-2.07-7.82-5.22-10.03-2.18,5.11-7.14,8.75-12.98,9.03,6.51.09,11.96,4.59,13.5,10.65,2.86-2.24,4.7-5.73,4.7-9.65Z"/>
      <path class="umap-hero-1" d="m212.54,260.22c-.62,3.1-2.22,5.85-4.47,7.91,1.54.56,3.2.88,4.93.9.24-.01.47-.02.71-.02.07,0,.14,0,.21,0,5.84-.28,10.8-3.92,12.98-9.03-1.99-1.39-4.41-2.21-7.02-2.21-2.75,0-5.29.91-7.34,2.44Z"/>
      <path class="umap-hero-6" d="m209,275.64c-.11,1.34-.44,2.61-.96,3.78,3.53,2.52,5.84,6.66,5.84,11.33,0,2.33-.58,4.53-1.59,6.47.47.05.94.07,1.42.07,7.81,0,14.14-6.33,14.14-14.14,0-1.2-.15-2.37-.43-3.49-2.08,1.63-4.69,2.6-7.54,2.6-4.73,0-8.84-2.69-10.87-6.62Z"/>
      <path class="umap-hero-8" d="m213.92,269.01c-.24.01-.48.02-.72.02-.07,0-.13,0-.2,0-1.73.09-3.37.48-4.88,1.13.59,1.4.92,2.93.92,4.54,0,.32-.01.63-.04.94,2.04,3.93,6.14,6.62,10.87,6.62,2.84,0,5.46-.97,7.54-2.6-1.54-6.06-6.99-10.56-13.5-10.65Z"/>
      <path class="umap-hero-12" d="m213,269.03c.07,0,.13,0,.2,0,.24,0,.48,0,.72-.02-.07,0-.14,0-.21,0-.24,0-.48,0-.71.02Z"/>
      <path class="umap-hero-7" d="m199.88,286.09c-.8.17-1.63.27-2.49.27-1.88,0-3.66-.45-5.23-1.24h0s.74,16.03.74,16.03h-2.17c2.46,2.19,5.69,3.52,9.24,3.52,5.35,0,9.99-3.02,12.32-7.44-6.16-.61-11.15-5.18-12.41-11.13Z"/>
      <path class="umap-hero-1" d="m208.05,279.42c-1.49,3.35-4.51,5.87-8.17,6.66,1.26,5.95,6.25,10.52,12.41,11.13,1.02-1.93,1.59-4.13,1.59-6.47,0-4.67-2.3-8.81-5.84-11.33Z"/>
      <path class="umap-hero-11" d="m207.74,268.42c-.12.1-.23.2-.35.29-2.52,2.04-5.73,3.26-9.22,3.26s-6.69-1.22-9.21-3.25l-3.22,5.98,6.42,10.42c1.57.79,3.35,1.24,5.23,1.24.85,0,1.69-.09,2.49-.27-.2-.95-.31-1.93-.31-2.94,0-2.25.53-4.38,1.46-6.27,1.41-2.84,3.74-5.14,6.61-6.51.16-.08.32-.15.48-.22,1.51-.65,3.15-1.04,4.88-1.13-1.73-.02-3.39-.34-4.93-.9-.11.1-.22.2-.33.3Z"/>
      <path class="umap-hero-5" d="m201.04,276.88c-.94,1.89-1.46,4.02-1.46,6.27,0,1.01.11,1.99.31,2.94,3.66-.8,6.68-3.31,8.17-6.66.52-1.17.85-2.44.96-3.78.02-.31.04-.62.04-.94,0-1.61-.33-3.15-.92-4.54-.16.07-.32.14-.48.22-2.87,1.36-5.2,3.66-6.61,6.51Z"/>
      <path class="umap-hero-8" d="m199.33,259.6c.68.1,1.37.15,2.07.15,4.46,0,8.46-1.98,11.18-5.1-.97-5.27-4.75-9.55-9.74-11.22-1.47-.5-3.04-.76-4.68-.76-2.96,0-5.72.88-8.03,2.39l1.92,11.37c2.04,1.67,4.54,2.8,7.28,3.18Z"/>
      <path class="umap-hero-4" d="m201.41,259.74c-.7,0-1.4-.05-2.07-.15-2.74-.38-5.23-1.52-7.28-3.18l.84,5-1.91,3.55c1.84-1.21,4.04-1.92,6.4-1.92,1.66,0,3.24.35,4.67.97,1.75.77,3.28,1.95,4.45,3.43.32.4.61.83.88,1.27.12-.1.24-.19.35-.29.11-.1.22-.2.33-.3,2.24-2.06,3.85-4.81,4.47-7.91.19-.94.29-1.91.29-2.9,0-.91-.08-1.81-.24-2.67-2.71,3.12-6.71,5.1-11.18,5.1Z"/>
      <path class="umap-hero-3" d="m202.06,264.02c-1.43-.63-3.01-.97-4.67-.97-2.36,0-4.56.71-6.4,1.92l-2.03,3.76c2.52,2.03,5.72,3.25,9.21,3.25s6.7-1.22,9.22-3.26c-.27-.44-.56-.87-.88-1.27-1.18-1.48-2.7-2.66-4.45-3.43Z"/>
      <path class="umap-hero-10" d="m189.59,238.3s.43,1.99-.24,1.99c-3.39,0-1.75-2.29-6.81-1.5-3.65.57,1.37-5.81,7.06-.49Zm-2.21,57.43c.98-1.18.75-3.03.79-3.48.03-.45,2.7-.8,2.58,1.45-.11,2.25-2.32,4.42-4.86,4.49-2.53.06-4.91-.36-4.45-1.95.55-1.91,4.28,1.48,5.94-.51Zm-6.88-39.23c.53,2.85,2.38,5.71,6.08,5.71,1.85,0,4.5,0,4.23-1.43-.53-2.14-2.12,0-4.5-.71-4.76-.71-3.44-4.28-2.91-7.13.53-2.85-2.12-5.71-5.03-4.99,0,3.57,4.23,1.43,2.38,6.42-3.17,1.43-4.23-.71-5.82.71.53,2.14,2.91,2.14,5.56,1.43Zm-11.64,7.84c-4.76-2.14-6.62,5.71-3.44,7.13,3.17,1.43-.26-2.14,1.06-4.99,1.06-2.14,1.85,0,2.38-2.14Zm6.08,3.57c-1.32,1.43,3.97,2.14,1.06,6.42-1.85,2.85-2.91,3.57-2.12,7.13-22.49,3.57-23.02-20.68-10.32-24.96,3.17-1.43,5.03,0,5.29-2.85h-4.76c-1.85-.71-1.06-6.42,2.12-9.27,6.62-5.71,6.88-1.43,9.79-2.14.79-2.14-2.38-.71-2.38-3.57-.26-7.85,12.43-7.85,12.96-7.85,8.99,1.43,11.9,9.27,7.41,15.69l-1.85.71c.26,2.14,2.91,1.43,3.44,4.99.53,2.14.26,18.54-.26,19.97-1.59,3.57-4.76,2.14-7.14,2.85.79,3.57,7.67-.71,7.67,12.13,0,6.42,1.32,12.84-3.17,16.4-4.5,2.85-11.64,2.85-16.14,0-6.62-4.28-.26-12.13-.53-13.55-2.65,0-3.17,2.85-4.23,4.28-4.5,0-9.79-7.84-7.14-9.98.79-1.43,3.44,0,5.56,0s4.23-1.43,5.82-.71c.79.71,7.67,3.57,8.2-1.43-2.65,0-4.23,2.14-7.14,0-4.76-3.57,2.91-6.42,1.85-11.41-.26-.71-.79-2.14-1.59-2.85-2.12-1.43-2.38,0-2.38,0h0Z"/>
    </g>
    <g id="Text">
      <path class="umap-hero-9" d="m249.18,261.55v10.81c0,3.14,1.72,5.53,4.99,5.53s5.29-2.64,5.29-5.78v-10.56h5.08v20.7h-4.57l-.34-2.81c-2.14,2.09-4.11,3.1-7.01,3.1-4.95,0-8.56-3.73-8.56-10.14v-10.85h5.12Z"/>
      <path class="umap-hero-9" d="m295.05,260.96l-9.57,12.74h-1.09l-9.36-12.78v21.33h-5.54v-29.33h6.38l9.19,12.61,9.19-12.61h6.34v29.33h-5.54v-21.29h0Z"/>
      <path class="umap-hero-9" d="m322.23,261.55h4.91v20.66h-4.83l-.25-3.02c-1.18,2.43-4.41,3.6-6.71,3.65-6.12.04-10.66-3.73-10.66-10.98s4.74-10.85,10.78-10.81c2.77,0,5.41,1.3,6.59,3.35l.17-2.85h0Zm-12.42,10.31c0,3.94,2.73,6.28,6.12,6.28,8.06,0,8.06-12.53,0-12.53-3.4,0-6.12,2.31-6.12,6.24Z"/>
      <path class="umap-hero-9" d="m331.47,290.84v-29.29h4.78l.34,2.85c1.59-2.31,4.37-3.31,6.71-3.31,6.38,0,10.61,4.74,10.61,10.81s-3.82,10.81-10.45,10.81c-2.18,0-5.41-.67-6.88-2.93v11.06h-5.12Zm17.33-18.94c0-3.23-2.18-5.87-5.88-5.87s-5.87,2.64-5.87,5.87,2.39,5.87,5.87,5.87,5.88-2.64,5.88-5.87Z"/>
      <path class="umap-hero-9" d="m362.46,267.11h-2.08v-4.64h-2.08v-1.75h6.26v1.75h-2.1v4.64Zm6.72-4.29l1.73-2.12h2.19v6.41h-2.12v-1.9l.15-1.86-1.75,2.34h-.44l-1.71-2.34.15,1.86v1.9h-2.12v-6.41h2.19l1.73,2.12Z"/>
    </g>
  </g>
</svg>
