<svg width="235" id="zoom-portal" xmlns="http://www.w3.org/2000/svg" viewBox="0 0 235.66 275">
<defs>
<style>
.zoom-portal-1{fill:#fff;}.zoom-portal-2{fill:#ffea82;}.zoom-portal-3{fill:#ffd407;}</style>
</defs>
<g class="circleSpinner">
<ellipse id="circle-bottom" class="zoom-portal-3" cx="118.09" cy="157.94" rx="117.57" ry="117.06"/>
<ellipse id="circle-top" class="zoom-portal-2" cx="117.57" cy="117.06" rx="117.57" ry="117.06"/>
<ellipse id="circle-center" class="zoom-portal-1" cx="117.86" cy="138.76" rx="117.57" ry="117.06"/>
</g>
<g class="iconSpinner">
<path id="icon" class="zoom-portal-3" d="m82.98,113c0-2.39.94-4.68,2.61-6.36,1.67-1.69,3.93-2.64,6.29-2.64s4.62.95,6.29,2.64c1.67,1.69,2.61,3.98,2.61,6.36s-.94,4.68-2.61,6.36c-1.67,1.69-3.93,2.64-6.29,2.64s-4.62-.95-6.29-2.64c-1.67-1.69-2.61-3.98-2.61-6.36Zm-5.3,23.82c.47-5.84,5.3-10.32,11.08-10.32h6.23c3.75,0,7.09,1.88,9.11,4.79-.38.27-.72.56-1.04.89l-8.9,9c-3.05,3.08-3.05,8.06,0,11.14l6.62,6.69v10.24c0,3.73-2.99,6.75-6.68,6.75h-4.45c-3.69,0-6.68-3.02-6.68-6.75v-16.27c-3.69-1.34-6.22-5.05-5.87-9.22l.57-6.93Zm58.7-23.82c0-2.39.94-4.68,2.61-6.36,1.67-1.69,3.93-2.64,6.29-2.64s4.62.95,6.29,2.64c1.67,1.69,2.61,3.98,2.61,6.36s-.94,4.68-2.61,6.36c-1.67,1.69-3.93,2.64-6.29,2.64s-4.62-.95-6.29-2.64c-1.67-1.69-2.61-3.98-2.61-6.36Zm-2.28,19.18c-.32-.32-.68-.62-1.04-.89,2.02-2.91,5.37-4.79,9.11-4.79h6.23c5.78,0,10.61,4.49,11.08,10.32l.57,6.93c.35,4.19-2.18,7.89-5.87,9.22v16.27c0,3.73-2.99,6.75-6.67,6.75h-4.45c-3.68,0-6.67-3.02-6.67-6.75v-10.24l6.62-6.69c3.05-3.08,3.05-8.06,0-11.14l-8.9-9Zm-22.19,5.57v4.5h13.35v-4.5c0-1.36.81-2.6,2.06-3.12,1.25-.52,2.68-.24,3.64.73l8.9,9c1.31,1.32,1.31,3.46,0,4.77l-8.9,9c-.96.97-2.39,1.25-3.64.73-1.25-.52-2.06-1.76-2.06-3.12v-4.49h-13.35v4.5c0,1.36-.81,2.6-2.06,3.12-1.25.52-2.68.24-3.64-.73l-8.9-9c-1.31-1.32-1.31-3.46,0-4.77l8.9-9c.96-.97,2.39-1.25,3.64-.73,1.25.52,2.06,1.76,2.06,3.12h0Z"/>
</g>
</svg>
